<svg width="46" height="46" viewBox="0 0 46 46" fill="none" xmlns="http://www.w3.org/2000/svg">
<path d="M12.9375 22.3711H10.0625C9.31823 22.3711 8.71484 22.9745 8.71484 23.7188C8.71484 24.463 9.31823 25.0664 10.0625 25.0664H12.9375C13.6818 25.0664 14.2852 24.463 14.2852 23.7188C14.2852 22.9745 13.6818 22.3711 12.9375 22.3711Z" fill="#E20505"/>
<path d="M12.9375 28.1211H10.0625C9.31823 28.1211 8.71484 28.7245 8.71484 29.4688C8.71484 30.213 9.31823 30.8164 10.0625 30.8164H12.9375C13.6818 30.8164 14.2852 30.213 14.2852 29.4688C14.2852 28.7245 13.6818 28.1211 12.9375 28.1211Z" fill="#E20505"/>
<path d="M12.9375 33.8711H10.0625C9.31823 33.8711 8.71484 34.4745 8.71484 35.2188C8.71484 35.963 9.31823 36.5664 10.0625 36.5664H12.9375C13.6818 36.5664 14.2852 35.963 14.2852 35.2188C14.2852 34.4745 13.6818 33.8711 12.9375 33.8711Z" fill="#E20505"/>
<path d="M24.4375 22.3711H21.5625C20.8182 22.3711 20.2148 22.9745 20.2148 23.7188C20.2148 24.463 20.8182 25.0664 21.5625 25.0664H24.4375C25.1818 25.0664 25.7852 24.463 25.7852 23.7188C25.7852 22.9745 25.1818 22.3711 24.4375 22.3711Z" fill="#E20505"/>
<path d="M24.4375 28.1211H21.5625C20.8182 28.1211 20.2148 28.7245 20.2148 29.4688C20.2148 30.213 20.8182 30.8164 21.5625 30.8164H24.4375C25.1818 30.8164 25.7852 30.213 25.7852 29.4688C25.7852 28.7245 25.1818 28.1211 24.4375 28.1211Z" fill="#E20505"/>
<path d="M24.4375 33.8711H21.5625C20.8182 33.8711 20.2148 34.4745 20.2148 35.2188C20.2148 35.963 20.8182 36.5664 21.5625 36.5664H24.4375C25.1818 36.5664 25.7852 35.963 25.7852 35.2188C25.7852 34.4745 25.1818 33.8711 24.4375 33.8711Z" fill="#E20505"/>
<path d="M35.9375 22.3711H33.0625C32.3182 22.3711 31.7148 22.9745 31.7148 23.7188C31.7148 24.463 32.3182 25.0664 33.0625 25.0664H35.9375C36.6818 25.0664 37.2852 24.463 37.2852 23.7188C37.2852 22.9745 36.6818 22.3711 35.9375 22.3711Z" fill="#E20505"/>
<path d="M35.9375 28.1211H33.0625C32.3182 28.1211 31.7148 28.7245 31.7148 29.4688C31.7148 30.213 32.3182 30.8164 33.0625 30.8164H35.9375C36.6818 30.8164 37.2852 30.213 37.2852 29.4688C37.2852 28.7245 36.6818 28.1211 35.9375 28.1211Z" fill="#E20505"/>
<path d="M35.9375 33.8711H33.0625C32.3182 33.8711 31.7148 34.4745 31.7148 35.2188C31.7148 35.963 32.3182 36.5664 33.0625 36.5664H35.9375C36.6818 36.5664 37.2852 35.963 37.2852 35.2188C37.2852 34.4745 36.6818 33.8711 35.9375 33.8711Z" fill="#E20505"/>
<path d="M41.957 5.83984H38.7227V3.59375C38.7227 2.84948 38.1193 2.24609 37.375 2.24609C36.6307 2.24609 36.0273 2.84948 36.0273 3.59375V5.83984H24.3477V3.59375C24.3477 2.84948 23.7443 2.24609 23 2.24609C22.2557 2.24609 21.6523 2.84948 21.6523 3.59375V5.83984H9.97266V3.59375C9.97266 2.84948 9.36927 2.24609 8.625 2.24609C7.88073 2.24609 7.27734 2.84948 7.27734 3.59375V5.83984H4.04297C1.81368 5.83984 0 7.65352 0 9.88281V39.7109C0 41.9402 1.81368 43.7539 4.04297 43.7539H41.957C44.1863 43.7539 46 41.9402 46 39.7109C46 38.8411 46 10.6397 46 9.88281C46 7.65352 44.1863 5.83984 41.957 5.83984ZM2.69531 9.88281C2.69531 9.13971 3.29987 8.53516 4.04297 8.53516H7.27734V10.7812C7.27734 11.5255 7.88073 12.1289 8.625 12.1289C9.36927 12.1289 9.97266 11.5255 9.97266 10.7812V8.53516H21.6523V10.7812C21.6523 11.5255 22.2557 12.1289 23 12.1289C23.7443 12.1289 24.3477 11.5255 24.3477 10.7812V8.53516H36.0273V10.7812C36.0273 11.5255 36.6307 12.1289 37.375 12.1289C38.1193 12.1289 38.7227 11.5255 38.7227 10.7812V8.53516H41.957C42.7001 8.53516 43.3047 9.13971 43.3047 9.88281V15.1836H2.69531V9.88281ZM41.957 41.0586H4.04297C3.29987 41.0586 2.69531 40.454 2.69531 39.7109V17.8789H43.3047V39.7109C43.3047 40.454 42.7001 41.0586 41.957 41.0586Z" fill="#E20505"/>
</svg>
