<svg width="48" height="48" viewBox="0 0 48 48" fill="none" xmlns="http://www.w3.org/2000/svg">
<g filter="url(#filter0_d_1032_57)">
<rect x="4" width="40" height="40" rx="12" fill="white"/>
</g>
<g clip-path="url(#clip0_1032_57)">
<path d="M28.489 22.19C28.1136 21.7992 27.6609 21.5902 27.1811 21.5902C26.7052 21.5902 26.2486 21.7953 25.8578 22.1861L24.6351 23.4049C24.5345 23.3508 24.4339 23.3005 24.3371 23.2502C24.1978 23.1805 24.0663 23.1147 23.9541 23.0451C22.8087 22.3176 21.7679 21.3696 20.7696 20.1431C20.2859 19.5317 19.9609 19.0171 19.7248 18.4947C20.0421 18.2045 20.3362 17.9027 20.6225 17.6125C20.7309 17.5041 20.8392 17.3919 20.9475 17.2836C21.7601 16.471 21.7601 15.4186 20.9475 14.606L19.8912 13.5496C19.7713 13.4297 19.6474 13.3059 19.5314 13.1821C19.2992 12.9422 19.0554 12.6945 18.8039 12.4624C18.4286 12.0909 17.9797 11.8936 17.5077 11.8936C17.0356 11.8936 16.579 12.0909 16.1921 12.4624C16.1882 12.4662 16.1882 12.4662 16.1843 12.4701L14.8688 13.7973C14.3735 14.2926 14.091 14.8962 14.0291 15.5965C13.9362 16.7264 14.269 17.7789 14.5244 18.4676C15.1512 20.1585 16.0876 21.7256 17.4845 23.4049C19.1792 25.4286 21.2184 27.0267 23.5478 28.1527C24.4377 28.5744 25.6256 29.0736 26.9528 29.1587C27.0341 29.1626 27.1192 29.1664 27.1966 29.1664C28.0904 29.1664 28.8411 28.8453 29.4292 28.2068C29.4331 28.1991 29.4408 28.1952 29.4447 28.1875C29.6459 27.9437 29.8781 27.7232 30.1218 27.4871C30.2882 27.3285 30.4585 27.1621 30.6249 26.988C31.0079 26.5894 31.2091 26.1251 31.2091 25.6492C31.2091 25.1694 31.0041 24.7089 30.6132 24.322L28.489 22.19ZM29.8742 26.2644C29.8703 26.2644 29.8703 26.2683 29.8742 26.2644C29.7233 26.4269 29.5685 26.574 29.4021 26.7365C29.1506 26.9764 28.8952 27.2279 28.6553 27.5103C28.2645 27.9282 27.8041 28.1256 27.2005 28.1256C27.1424 28.1256 27.0805 28.1256 27.0225 28.1217C25.8733 28.0482 24.8053 27.5993 24.0044 27.2163C21.8143 26.1561 19.8912 24.6509 18.2932 22.7433C16.9737 21.153 16.0915 19.6826 15.5072 18.1039C15.1474 17.1404 15.0158 16.3898 15.0738 15.6817C15.1125 15.229 15.2867 14.8536 15.6078 14.5325L16.9273 13.213C17.1169 13.035 17.3181 12.9383 17.5154 12.9383C17.7592 12.9383 17.9565 13.0853 18.0803 13.2091C18.0842 13.213 18.0881 13.2169 18.0919 13.2207C18.328 13.4413 18.5524 13.6696 18.7884 13.9134C18.9084 14.0372 19.0322 14.161 19.156 14.2887L20.2124 15.345C20.6225 15.7552 20.6225 16.1344 20.2124 16.5445C20.1002 16.6568 19.9918 16.769 19.8796 16.8773C19.5546 17.2101 19.245 17.5196 18.9084 17.8214C18.9006 17.8292 18.8929 17.833 18.889 17.8408C18.5563 18.1735 18.6182 18.4986 18.6878 18.7191C18.6917 18.7307 18.6956 18.7423 18.6994 18.754C18.9742 19.4195 19.3611 20.0463 19.9493 20.7931L19.9531 20.797C21.0211 22.1126 22.1471 23.138 23.3891 23.9234C23.5478 24.024 23.7103 24.1053 23.8651 24.1827C24.0044 24.2523 24.1359 24.3181 24.2481 24.3878C24.2636 24.3955 24.2791 24.4071 24.2946 24.4148C24.4261 24.4806 24.5499 24.5116 24.6776 24.5116C24.9988 24.5116 25.2 24.3104 25.2658 24.2446L26.5891 22.9213C26.7207 22.7897 26.9296 22.6311 27.1734 22.6311C27.4133 22.6311 27.6106 22.782 27.7306 22.9135C27.7344 22.9174 27.7344 22.9174 27.7383 22.9213L29.8703 25.0533C30.2689 25.448 30.2689 25.8543 29.8742 26.2644Z" fill="black"/>
<path d="M23.9075 15.1945C24.9213 15.3647 25.8422 15.8445 26.5774 16.5797C27.3126 17.3149 27.7885 18.2358 27.9626 19.2496C28.0052 19.5049 28.2257 19.6829 28.4772 19.6829C28.5082 19.6829 28.5353 19.6791 28.5662 19.6752C28.8526 19.6288 29.0422 19.3579 28.9957 19.0716C28.7868 17.845 28.2064 16.7267 27.3203 15.8406C26.4342 14.9545 25.316 14.3741 24.0894 14.1652C23.803 14.1188 23.5361 14.3084 23.4858 14.5908C23.4354 14.8733 23.6212 15.148 23.9075 15.1945Z" fill="black"/>
<path d="M32.312 18.9202C31.9676 16.9004 31.0157 15.0625 29.5531 13.5998C28.0905 12.1372 26.2525 11.1853 24.2327 10.841C23.9503 10.7907 23.6833 10.9841 23.633 11.2666C23.5865 11.5529 23.7761 11.8199 24.0625 11.8702C25.8656 12.1759 27.5101 13.031 28.8179 14.335C30.1258 15.6429 30.977 17.2874 31.2827 19.0905C31.3253 19.3459 31.5458 19.5238 31.7973 19.5238C31.8283 19.5238 31.8554 19.52 31.8863 19.5161C32.1688 19.4735 32.3623 19.2027 32.312 18.9202Z" fill="black"/>
</g>
<defs>
<filter id="filter0_d_1032_57" x="0" y="0" width="48" height="48" filterUnits="userSpaceOnUse" color-interpolation-filters="sRGB">
<feFlood flood-opacity="0" result="BackgroundImageFix"/>
<feColorMatrix in="SourceAlpha" type="matrix" values="0 0 0 0 0 0 0 0 0 0 0 0 0 0 0 0 0 0 127 0" result="hardAlpha"/>
<feOffset dy="4"/>
<feGaussianBlur stdDeviation="2"/>
<feComposite in2="hardAlpha" operator="out"/>
<feColorMatrix type="matrix" values="0 0 0 0 0.754167 0 0 0 0 0.754167 0 0 0 0 0.754167 0 0 0 0.25 0"/>
<feBlend mode="normal" in2="BackgroundImageFix" result="effect1_dropShadow_1032_57"/>
<feBlend mode="normal" in="SourceGraphic" in2="effect1_dropShadow_1032_57" result="shape"/>
</filter>
<clipPath id="clip0_1032_57">
<rect width="18.3333" height="18.3333" fill="white" transform="translate(14 10.833)"/>
</clipPath>
</defs>
</svg>
