<svg width="52" height="40" viewBox="0 0 52 40" fill="none" xmlns="http://www.w3.org/2000/svg">
<path d="M50.0951 8.71254C43.2857 5.9821 35.764 3.43062 27.7386 1.12898C26.601 0.802658 25.3987 0.80276 24.2615 1.12898C19.1341 2.59952 14.1874 4.17894 9.55877 5.82346C9.16236 5.96433 8.95518 6.39983 9.09594 6.79624C9.23671 7.19264 9.67222 7.39983 10.0687 7.25896C14.6677 5.6249 19.5841 4.05513 24.6815 2.59333C25.5439 2.34592 26.4557 2.34582 27.3185 2.59333C35.2943 4.88075 42.7667 7.41527 49.5281 10.1265C50.2272 10.4068 50.4764 11.0344 50.4765 11.5282C50.4766 12.0224 50.2275 12.6506 49.5281 12.9314C46.131 14.2936 42.5523 15.6115 38.8191 16.8764C38.7485 16.7882 38.6588 16.7144 38.5529 16.664L26.3276 10.841C25.9479 10.66 25.4933 10.8213 25.3123 11.2012C25.1314 11.581 25.2927 12.0355 25.6725 12.2164L36.8409 17.536C33.7609 18.5495 30.5832 19.5273 27.3185 20.4637C26.4561 20.711 25.5443 20.7112 24.6815 20.4637C16.6997 18.1745 9.22737 15.6403 2.47226 12.9316C1.77249 12.6507 1.52335 12.0225 1.52346 11.5283C1.52356 11.0345 1.77279 10.4068 2.47196 10.1265C4.00984 9.50982 5.60561 8.89403 7.21488 8.29633C7.60925 8.14988 7.81015 7.71143 7.66369 7.31705C7.51724 6.92268 7.07848 6.72169 6.68441 6.86814C5.06285 7.47042 3.45469 8.09097 1.90483 8.71244C0.730141 9.18359 0.000304786 10.2624 9.53642e-08 11.528C-0.000304596 12.7941 0.729532 13.8736 1.90493 14.3456C4.67945 15.4581 7.57523 16.5406 10.5745 17.5895V26.0019C10.5745 26.9186 11.1194 27.7414 11.9625 28.0979C16.0062 29.8097 20.5544 31.3866 25.4843 32.7861C25.6865 32.8422 25.8945 32.8708 26.1026 32.8708C26.3107 32.8708 26.5187 32.8422 26.725 32.785C30.5529 31.6984 34.1514 30.5034 37.4635 29.2216V31.6086C36.2667 31.9424 35.3857 33.0416 35.3857 34.3435V38.3541C35.3857 38.7748 35.7267 39.1158 36.1474 39.1158H40.303C40.7238 39.1158 41.0647 38.7748 41.0647 38.3541V34.3435C41.0647 33.0416 40.1838 31.9424 38.9869 31.6086V28.6176C39.41 28.4458 39.8292 28.2729 40.2418 28.0982C41.0861 27.7419 41.6317 26.9191 41.6317 26.0019V24.7954C41.6317 24.3747 41.2907 24.0336 40.8699 24.0336C40.4492 24.0336 40.1082 24.3747 40.1082 24.7954V26.0019C40.1082 26.3051 39.9282 26.577 39.6487 26.6949C39.4299 26.7875 39.2089 26.8796 38.9869 26.9715V18.4271C39.3624 18.3006 39.7359 18.1733 40.1082 18.0456V21.7484C40.1082 22.1691 40.4492 22.5102 40.8699 22.5102C41.2907 22.5102 41.6317 22.1691 41.6317 21.7484V17.5173C44.5576 16.4909 47.3844 15.4325 50.0955 14.3455C51.2705 13.8736 52.0003 12.7941 52 11.528C51.9997 10.2624 51.2699 9.18359 50.0951 8.71254ZM39.5413 34.3434V37.5923H36.9092V34.3434C36.9092 33.6177 37.4994 33.0273 38.2252 33.0273C38.951 33.0273 39.5413 33.6177 39.5413 34.3434ZM37.4635 27.5865C34.0457 28.9327 30.3055 30.1848 26.313 31.3182C26.1742 31.3568 26.0269 31.3557 25.8962 31.3193C21.0307 29.9381 16.5425 28.3823 12.5561 26.6948C12.2778 26.5771 12.098 26.3052 12.098 26.0019V18.1163C15.9933 19.4479 20.0567 20.7222 24.2614 21.9282C24.8303 22.0913 25.415 22.1729 26 22.1729C26.5849 22.1729 27.1699 22.0913 27.7385 21.9282C31.0735 20.9717 34.3191 19.9719 37.4635 18.935V27.5865Z" fill="#E52424"/>
</svg>
