<svg width="386" height="231" viewBox="0 0 386 231" fill="none" xmlns="http://www.w3.org/2000/svg">
<g clip-path="url(#clip0_315_2056)">
<path d="M347.91 112.276C332.421 101.11 313.86 95.7078 296.773 87.6197C280.339 79.8423 268.646 67.3442 253.942 57.0468C229.918 40.2201 202.148 27.6025 173.888 19.9023C145.311 12.1165 110.403 7.80333 84.3544 25.0629C71.5429 33.5515 61.115 46.7172 56.8675 61.5849C51.8122 79.2759 56.7593 97.3521 59.1837 115.032C61.1543 129.398 51.9358 137.323 41.0753 145.487C15.6447 164.6 16.3513 199.187 32.0647 223.976H359.356C378.792 188.747 387.337 140.7 347.91 112.277V112.276Z" fill="#F6F5F5"/>
<path d="M33.6981 126.212C40.3982 126.212 45.8298 120.778 45.8298 114.074C45.8298 107.37 40.3982 101.936 33.6981 101.936C26.9979 101.936 21.5664 107.37 21.5664 114.074C21.5664 120.778 26.9979 126.212 33.6981 126.212Z" fill="#F6F5F5"/>
<path d="M320.951 71.776C330.854 71.776 338.882 63.7435 338.882 53.8348C338.882 43.9261 330.854 35.8936 320.951 35.8936C311.048 35.8936 303.02 43.9261 303.02 53.8348C303.02 63.7435 311.048 71.776 320.951 71.776Z" fill="#F6F5F5"/>
<path d="M41.1883 82.9212C41.6521 79.9881 39.6516 77.2341 36.72 76.77C33.7884 76.306 31.036 78.3076 30.5722 81.2408C30.1084 84.1739 32.1089 86.9279 35.0405 87.392C37.972 87.856 40.7245 85.8544 41.1883 82.9212Z" fill="#F6F5F5"/>
<path d="M336.902 90.0291C339.644 88.8927 340.946 85.7473 339.81 83.0037C338.674 80.2601 335.531 78.9572 332.789 80.0937C330.047 81.2301 328.744 84.3755 329.88 87.1191C331.016 89.8627 334.16 91.1655 336.902 90.0291Z" fill="#F6F5F5"/>
<path d="M21.1605 223.142C5.59596 209.855 5.45269 186.609 12.2159 169.463C19.7461 150.372 37.3951 134.658 60.6401 126.35C61.2048 126.149 61.7694 125.951 62.3341 125.754L62.5434 126.358C61.9801 126.554 61.4169 126.753 60.8536 126.953C37.7828 135.2 20.27 150.78 12.8087 169.699C6.12971 186.633 6.24911 209.574 21.5749 222.657L21.1605 223.143V223.142Z" fill="#DADADA"/>
<path d="M348.749 223.885L348.182 223.593C359.676 201.236 366.486 178.691 367.872 158.394C369.239 138.384 365.271 121.879 356.399 110.664C348.348 100.488 332.327 89.9528 301.721 97.5602L301.568 96.9404C332.501 89.2515 348.731 99.9437 356.899 110.268C365.872 121.608 369.886 138.266 368.508 158.438C367.116 178.821 360.284 201.452 348.749 223.885Z" fill="#DADADA"/>
<path d="M92.8534 45.1605L92.2354 45.0017C92.2789 44.8344 93.3281 40.8305 96.8369 35.5364C100.069 30.6597 106.086 23.755 116.4 18.555C128.212 12.599 143.078 10.0721 160.585 11.0432C182.495 12.2603 208.62 18.9907 238.237 31.0504L237.997 31.642C208.445 19.6091 182.388 12.8941 160.55 11.6813C143.153 10.7143 128.397 13.2202 116.687 19.1256C106.498 24.2637 100.558 31.0771 97.3678 35.8905C93.9181 41.0947 92.8632 45.1211 92.8534 45.1619V45.1605Z" fill="#DADADA"/>
<path d="M85.9108 45.6299H314.217C316.459 45.6299 318.278 47.4499 318.278 49.6929V210.422C318.278 212.665 316.459 214.485 314.217 214.485H85.9108C83.6691 214.485 81.8501 212.665 81.8501 210.422V49.6929C81.8501 47.4499 83.6691 45.6299 85.9108 45.6299Z" fill="#FFD3D3"/>
<path d="M311.096 59.0645H89.0317V193.759H311.096V59.0645Z" fill="white"/>
<path d="M311.415 194.078H88.7114V58.7441H311.414V194.078H311.415ZM89.3505 193.438H310.776V59.3836H89.3505V193.44V193.438Z" fill="#FF8181"/>
<path d="M311.096 50.6885H89.0317V59.0646H311.096V50.6885Z" fill="white"/>
<path d="M311.415 59.3833H88.7114V50.3691H311.414V59.3833H311.415ZM89.3505 58.7439H310.776V51.0072H89.3505V58.7439Z" fill="#FF8181"/>
<path d="M99.4698 56.8109C98.4037 56.8109 97.5356 55.9423 97.5356 54.8757C97.5356 53.809 98.4037 52.9404 99.4698 52.9404C100.536 52.9404 101.404 53.809 101.404 54.8757C101.404 55.9423 100.536 56.8109 99.4698 56.8109ZM99.4698 53.5799C98.7563 53.5799 98.1747 54.1617 98.1747 54.8757C98.1747 55.5896 98.7563 56.1714 99.4698 56.1714C100.183 56.1714 100.765 55.5896 100.765 54.8757C100.765 54.1617 100.183 53.5799 99.4698 53.5799Z" fill="#FF8181"/>
<path d="M105.928 56.8109C104.862 56.8109 103.994 55.9423 103.994 54.8757C103.994 53.809 104.862 52.9404 105.928 52.9404C106.994 52.9404 107.862 53.809 107.862 54.8757C107.862 55.9423 106.994 56.8109 105.928 56.8109ZM105.928 53.5799C105.215 53.5799 104.633 54.1617 104.633 54.8757C104.633 55.5896 105.215 56.1714 105.928 56.1714C106.642 56.1714 107.223 55.5896 107.223 54.8757C107.223 54.1617 106.642 53.5799 105.928 53.5799Z" fill="#FF8181"/>
<path d="M112.388 56.8109C111.322 56.8109 110.454 55.9423 110.454 54.8757C110.454 53.809 111.322 52.9404 112.388 52.9404C113.454 52.9404 114.322 53.809 114.322 54.8757C114.322 55.9423 113.454 56.8109 112.388 56.8109ZM112.388 53.5799C111.675 53.5799 111.093 54.1617 111.093 54.8757C111.093 55.5896 111.675 56.1714 112.388 56.1714C113.102 56.1714 113.683 55.5896 113.683 54.8757C113.683 54.1617 113.102 53.5799 112.388 53.5799Z" fill="#FF8181"/>
<path d="M329.934 211.949H70.1934V224.002H329.934V211.949Z" fill="#FFD3D3"/>
<path d="M330.293 224.36H69.835V211.591H330.293V224.36ZM70.5513 223.644H329.575V212.309H70.5513V223.644Z" fill="#FF8181"/>
<path d="M211.499 199.482H188.628C187.195 199.482 186.033 200.645 186.033 202.078V203.63C186.033 205.063 187.195 206.226 188.628 206.226H211.499C212.932 206.226 214.093 205.063 214.093 203.63V202.078C214.093 200.645 212.932 199.482 211.499 199.482Z" fill="white"/>
<path d="M211.145 206.545H188.981C187.179 206.545 185.714 205.078 185.714 203.276V202.434C185.714 200.631 187.181 199.165 188.981 199.165H211.145C212.947 199.165 214.412 200.632 214.412 202.434V203.276C214.412 205.079 212.946 206.545 211.145 206.545ZM188.981 199.802C187.532 199.802 186.352 200.982 186.352 202.433V203.274C186.352 204.725 187.532 205.905 188.981 205.905H211.145C212.595 205.905 213.774 204.725 213.774 203.274V202.433C213.774 200.982 212.595 199.802 211.145 199.802H188.981Z" fill="#FF8181"/>
<path d="M279.616 118.45H120.511C114.762 118.45 110.083 113.77 110.083 108.016V107.319C110.083 101.567 114.76 96.8857 120.511 96.8857H279.616C285.367 96.8857 290.044 101.566 290.044 107.319V108.016C290.044 113.769 285.367 118.45 279.616 118.45ZM120.512 97.5252C115.114 97.5252 110.724 101.918 110.724 107.319V108.016C110.724 113.417 115.114 117.811 120.512 117.811H279.616C285.014 117.811 289.405 113.417 289.405 108.016V107.319C289.405 101.918 285.014 97.5252 279.616 97.5252H120.511H120.512Z" fill="#FFB8B8"/>
<path d="M139.399 103.77H120.16C118.387 103.77 116.95 105.207 116.95 106.981V108.354C116.95 110.127 118.387 111.565 120.16 111.565H139.399C141.171 111.565 142.608 110.127 142.608 108.354V106.981C142.608 105.207 141.171 103.77 139.399 103.77Z" fill="#FFDFDF"/>
<path d="M170.572 103.77H153.753C151.957 103.77 150.501 105.226 150.501 107.023V108.312C150.501 110.109 151.957 111.565 153.753 111.565H170.572C172.367 111.565 173.823 110.109 173.823 108.312V107.023C173.823 105.226 172.367 103.77 170.572 103.77Z" fill="#FFDFDF"/>
<path d="M206.412 103.77H183.752C181.859 103.77 180.324 105.305 180.324 107.2V108.135C180.324 110.029 181.859 111.565 183.752 111.565H206.412C208.305 111.565 209.84 110.029 209.84 108.135V107.2C209.84 105.305 208.305 103.77 206.412 103.77Z" fill="#FFDFDF"/>
<path d="M256.142 103.728H222.471C220.577 103.728 219.042 105.263 219.042 107.158V108.093C219.042 109.987 220.577 111.523 222.471 111.523H256.142C258.036 111.523 259.571 109.987 259.571 108.093V107.158C259.571 105.263 258.036 103.728 256.142 103.728Z" fill="#FFDFDF"/>
<path d="M226.88 80.6953H173.249V86.3141H226.88V80.6953Z" fill="#FF8282"/>
<path d="M191.603 152.655H182.101V170.861H191.603V152.655Z" fill="#FFB8B8"/>
<path d="M211.203 141.825H201.701V170.861H211.203V141.825Z" fill="#FFDFDF"/>
<path d="M230.802 135.449H221.299V170.861H230.802V135.449Z" fill="#FFB8B8"/>
<path d="M250.402 150.857H240.899V170.86H250.402V150.857Z" fill="#FFDFDF"/>
<path d="M270.001 139.303H260.499V170.861H270.001V139.303Z" fill="#FFB8B8"/>
<path d="M289.6 127.314H280.098V170.861H289.6V127.314Z" fill="#FFDFDF"/>
<path d="M161.205 126.208H107.574V129.634H161.205V126.208Z" fill="#FFE7E7"/>
<path d="M161.205 135.826H107.574V170.86H161.205V135.826Z" fill="#FFE7E7"/>
<path d="M136.82 148.849C134.8 148.051 132.722 148.677 131.241 150.128C129.889 151.449 129.7 153.317 129.063 154.983C130.377 155.342 131.558 156.12 132.989 155.897C134.849 155.607 134.898 153.872 135.952 152.688C136.855 151.675 137.936 151.022 139.229 150.849C138.674 150.031 137.997 149.314 136.82 148.85V148.849Z" fill="#FF8282"/>
<path d="M152.008 147.031C150.179 147.429 148.257 148.08 146.952 149.414C145.83 150.56 145.871 152.557 145.056 153.763C145.976 154.376 147.013 154.663 148.021 154.117C149.009 153.583 149.609 152.382 150.673 151.859C151.529 151.437 152.759 151.172 153.689 151.004C153.904 150.966 154.123 150.941 154.341 150.912V146.653C153.56 146.742 152.782 146.863 152.009 147.031H152.008Z" fill="#FF8282"/>
<path d="M153.689 151.004C152.758 151.171 151.529 151.437 150.673 151.858C149.609 152.383 149.009 153.583 148.021 154.117C147.013 154.662 145.976 154.377 145.056 153.763C144.694 153.521 144.348 153.23 144.031 152.917C142.772 151.676 142.379 150.974 140.387 150.813C139.981 150.781 139.598 150.796 139.227 150.847C137.935 151.021 136.853 151.673 135.95 152.686C134.897 153.87 134.847 155.605 132.988 155.895C131.556 156.118 130.375 155.34 129.062 154.981C128.538 154.838 127.993 154.759 127.403 154.841C126.018 155.032 125.142 155.864 124.177 156.495C123.504 156.935 122.789 157.278 121.827 157.234C119.679 157.14 116.911 155.902 114.437 155.822V165.39H154.339V150.908C154.122 150.938 153.903 150.963 153.688 151.001L153.689 151.004Z" fill="#FFADAD"/>
<path d="M124.177 156.496C124.019 156.359 123.87 156.211 123.737 156.045C122.75 154.818 122.67 153.261 121.577 152.112C119.449 149.873 116.543 150.758 114.438 152.663V155.825C116.912 155.905 119.681 157.142 121.828 157.237C122.79 157.279 123.505 156.936 124.178 156.498L124.177 156.496Z" fill="#FF8282"/>
<path d="M66.5609 133.717L56.3647 135.716L58.6922 120.714L64.9624 120.842C64.9231 121.106 64.8824 121.362 64.8585 121.626C64.6267 123.643 64.7461 125.666 65.0017 127.475C65.513 131.028 66.5609 133.717 66.5609 133.717Z" fill="#F9B384"/>
<path d="M65.0015 127.475C61.0826 125.627 59.6274 121.745 59.6274 121.745L64.8583 121.626C64.6265 123.643 64.7459 125.666 65.0015 127.475Z" fill="#700000"/>
<path d="M67.1591 112.177C67.5594 113.577 69.8251 122.447 65.6927 123.446C61.5603 124.446 57.2959 120.645 57.2959 120.645L58.6949 112.11L64.6926 110.31L67.1577 112.176L67.1591 112.177Z" fill="#F9B384"/>
<path d="M61.6852 117.002C61.6852 117.002 62.7597 109.909 67.1576 112.176C67.0003 112.094 66.7727 111.387 66.6744 111.226C66.2305 110.498 65.6603 109.837 64.9706 109.333C62.4676 107.497 58.2467 108.165 56.2283 110.276C54.2407 112.354 54.1789 116.048 55.2029 118.733C55.3686 119.168 55.5779 119.585 55.8294 119.976C56.0583 120.331 56.328 120.626 56.6328 120.919C56.8941 121.17 58.8563 122.716 58.8774 121.527C58.9279 118.626 61.6852 117.002 61.6852 117.002Z" fill="#EB5D60"/>
<path d="M62.6523 118.627C63.4005 118.015 63.3927 116.767 62.6348 115.84C61.877 114.913 60.6561 114.658 59.9079 115.27C59.1598 115.883 59.1676 117.13 59.9254 118.057C60.6832 118.985 61.9041 119.24 62.6523 118.627Z" fill="#F9B384"/>
<path d="M67.9903 118.227C68.5047 118.227 68.9216 117.774 68.9216 117.215C68.9216 116.656 68.5047 116.203 67.9903 116.203C67.476 116.203 67.0591 116.656 67.0591 117.215C67.0591 117.774 67.476 118.227 67.9903 118.227Z" fill="#F9B384"/>
<path d="M54.6294 191.591L42.5005 196.792C42.5005 196.792 52.4971 222.263 55.4286 223.864C58.3614 225.465 56.895 211.328 58.8938 207.061L61.4263 197.059L54.6294 191.591Z" fill="#272727"/>
<path d="M53.6756 206.068L53.5869 207.344L58.8514 207.71L58.9401 206.434L53.6756 206.068Z" fill="white"/>
<path d="M51.5635 189.725L58.8942 207.062C58.8942 207.062 87.4177 192.126 94.4816 178.523L83.2854 163.854L51.5635 189.725Z" fill="#EA5E5E"/>
<path d="M89.8164 203.727C89.8164 203.727 103.145 204.261 109.276 193.724L95.6807 191.725L89.8164 203.727Z" fill="#700000"/>
<path d="M110.665 205.548L95.6289 210.863L94.4153 206.57L92.2129 198.795L104.746 192.86L105.627 194.752L110.665 205.548Z" fill="#F9B384"/>
<path d="M129.668 223.998L113.208 210.996L110.667 205.55L95.6304 210.861L99.347 223.998H129.668Z" fill="#272727"/>
<path d="M112.704 210.609L109.305 214.943L110.31 215.732L113.709 211.398L112.704 210.609Z" fill="white"/>
<path d="M105.627 194.752L94.4153 206.57L92.2129 198.795L104.746 192.86L105.627 194.752Z" fill="#E28B6D"/>
<path d="M109.279 193.723C102.191 195.512 95.7118 198.853 89.8181 203.727L79.6852 177.055C79.6852 177.055 59.2409 196.552 47.0334 193.327C35.4327 190.26 40.4949 171.051 40.4949 171.051C56.4247 159.891 81.7654 144.904 92.8689 156.774C92.9265 156.825 92.9714 156.87 93.0164 156.922C95.289 159.419 97.8567 164.358 100.27 169.826C105.083 180.718 109.279 193.725 109.279 193.725V193.723Z" fill="#EA5E5E"/>
<path d="M100.27 169.825C89.2241 172.425 77.8594 160.147 77.8594 160.147L89.2747 156.397L92.8691 156.774C92.9267 156.825 92.9716 156.87 93.0166 156.922C95.2893 159.419 97.8569 164.358 100.27 169.826V169.825Z" fill="#D23939"/>
<path d="M89.5205 203.84L79.5589 177.621C77.3986 179.674 65.6448 190.436 53.2533 193.703L53.0903 193.086C66.5789 189.529 79.3328 176.956 79.4606 176.829L79.809 176.481L90.1161 203.613L89.5191 203.84H89.5205Z" fill="#D23939"/>
<path d="M56.9249 128.147L52.4498 142.623L46.4296 162.095C46.4296 162.095 42.0374 163.673 38.162 163.181C34.7404 162.747 31.7204 160.689 32.5365 154.473C34.3372 140.771 56.9263 128.147 56.9263 128.147H56.9249Z" fill="#FBC343"/>
<path d="M52.4484 142.623L46.4282 162.095C46.4282 162.095 42.036 163.673 38.1606 163.181C41.4109 143.192 52.1619 134.677 52.1619 134.677L52.4498 142.624L52.4484 142.623Z" fill="#E49B31"/>
<path d="M100.711 142.477L97.378 155.177L86.1284 144.559L90.5909 137.072L96.6251 140.292L100.711 142.477Z" fill="#FBC343"/>
<path d="M90.6162 137.084L94.8863 130.257L103.512 126.579L100.686 142.502L90.6162 137.084Z" fill="#F9B384"/>
<path d="M132.526 124.02C130.259 123.478 128.216 123.567 126.371 124.244C125.151 124.691 124.015 125.401 122.967 126.359L118.798 116.687C120.248 116.431 121.57 115.997 122.764 115.365C124.494 114.451 125.937 113.129 127.06 111.334L132.526 124.02Z" fill="#E20505"/>
<path d="M122.979 126.351L118.812 116.682L57.4321 145.835L59.65 150.983L122.979 126.351L118.812 116.682L122.979 126.351Z" fill="#E20505"/>
<path d="M132.526 124.02C130.259 123.478 128.216 123.566 126.371 124.244L122.764 115.365C124.494 114.451 125.937 113.129 127.06 111.334L132.526 124.02Z" fill="#700000"/>
<path d="M180.331 129.081C193.136 116.269 193.136 95.4951 180.331 82.6825C167.525 69.8698 146.763 69.8698 133.958 82.6825C121.152 95.4951 121.152 116.269 133.958 129.081C146.763 141.894 167.525 141.894 180.331 129.081Z" fill="#E20505"/>
<path d="M176.461 125.21C187.13 114.535 187.13 97.2285 176.461 86.5542C165.793 75.8798 148.496 75.8798 137.827 86.5542C127.159 97.2285 127.159 114.535 137.827 125.21C148.496 135.884 165.793 135.884 176.461 125.21Z" fill="white"/>
<path d="M132.242 94.6505H182.043C181.935 94.4115 181.828 94.1712 181.714 93.9365H132.584C132.468 94.174 132.352 94.4101 132.244 94.6505H132.242Z" fill="#FFB8B8"/>
<path d="M181.96 117.307H132.338C132.447 117.546 132.554 117.786 132.669 118.021H181.616C181.733 117.784 181.851 117.547 181.96 117.307Z" fill="#FFB8B8"/>
<path d="M100.711 142.477L96.625 140.291L99.1154 134.881C99.1154 134.881 102.582 128.614 104.312 128.882C106.043 129.144 100.711 142.477 100.711 142.477Z" fill="#F9B384"/>
<path d="M86.1313 144.559L85.2829 145.984C83.596 143.664 79.8766 138.718 75.1992 134.79C70.9924 131.261 65.2854 125.773 60.3032 126.533C46.9636 128.557 40.4995 171.053 40.4995 171.053L75.0152 158.552L82.7476 164.58C84.4289 165.891 86.5443 166.518 88.6681 166.334C92.2358 166.026 95.2234 163.502 96.1238 160.034L97.3823 155.181L86.1327 144.56L86.1313 144.559Z" fill="#FBC343"/>
<path d="M65.8585 150.015L65.4355 150.492L74.7995 158.796L75.2225 158.318L65.8585 150.015Z" fill="#E49B31"/>
<path d="M84.6126 144.657L84.0918 145.025L89.7324 153.011L90.2532 152.643L84.6126 144.657Z" fill="#E49B31"/>
<path d="M260.924 62.083C260.924 62.083 259.31 67.1396 255.238 69.3868C251.166 71.634 245.761 74.0218 247.587 74.7948C249.412 75.5677 254.292 75.0759 254.292 75.0759C254.292 75.0759 244.85 82.3797 247.517 83.1526C250.185 83.9256 256.643 78.6582 256.643 78.6582C256.643 78.6582 255.765 80.6243 257.1 81.046C258.434 81.4676 260.996 80.9757 260.996 80.9757C260.996 80.9757 260.645 82.3811 263.312 82.0297C265.98 81.6784 272.93 73.2503 272.93 73.2503L273.421 65.5248L260.926 62.083H260.924Z" fill="#E28B6D"/>
<path d="M252.712 18.6775C252.712 18.6775 263.241 15.9384 279.036 25.8422C293.249 34.7538 294.199 43.5417 287.459 54.4981C280.72 65.4545 272.929 73.2517 272.929 73.2517L260.925 62.0844L271.454 45.6498L252.71 18.6789L252.712 18.6775Z" fill="#F54D4D"/>
<path d="M248.991 20.3623C248.991 20.3623 234.109 28.3688 226.528 45.6467H278.474L264.154 22.8906L248.991 20.3623Z" fill="#F54D4D"/>
<path d="M234.337 45.5777C234.337 45.5777 239.444 46.4729 241.233 45.5777C243.023 44.6824 237.337 42.1007 232.442 40.8893C227.545 39.6778 221.807 37.5177 217.068 44.2608C212.33 51.0039 212.804 51.4775 214.331 51.3721C215.857 51.2667 219.49 46.7371 219.49 46.7371C219.49 46.7371 215.593 51.6363 217.436 52.1633C219.279 52.6904 223.701 46.0007 223.701 46.0007C223.701 46.0007 219.91 51.4269 221.858 52.0579C223.806 52.6904 228.017 46.0527 228.017 46.0527C228.017 46.0527 223.753 52.7424 226.333 52.5849C228.012 52.4824 229.936 49.5465 231.075 47.5087C231.738 46.3225 232.978 45.5791 234.337 45.5791V45.5777Z" fill="#E28B6D"/>
<path d="M252.625 27.718C250.602 27.718 249.005 26.8495 248.974 26.8326L249.286 26.2747C249.497 26.3913 254.496 29.0939 257.721 24.0654L258.259 24.4097C256.582 27.0238 254.432 27.7166 252.625 27.7166V27.718Z" fill="#102048"/>
<path d="M261.191 62.2578L260.656 61.9092L274.236 41.0335L269.028 32.9033L269.566 32.5576L274.997 41.0363L261.191 62.2578Z" fill="#102048"/>
<path d="M255.686 21.0279C254.83 24.0832 250.744 24.7254 248.861 22.1718L248.36 21.4958L245.118 17.1012L248.458 12.7557L248.779 12.3369L249.538 12.9019L250.089 13.3137L255.924 17.6802C256.042 19.0336 255.938 20.1354 255.686 21.0293V21.0279Z" fill="#E28B6D"/>
<path d="M248.36 21.496L245.118 17.1013L248.458 12.7559L249.538 12.902L250.054 12.9723C250.054 12.9723 250.068 13.0903 250.089 13.3138C250.173 14.4437 250.284 18.1835 248.36 21.496Z" fill="#102048"/>
<path d="M235.88 10.1823C235.88 10.1823 243.111 23.1751 248.314 17.7391C252.265 13.6114 249.475 7.91538 249.475 7.91538L245.641 4.19531L237.1 6.75312L235.88 10.1823Z" fill="#E28B6D"/>
<path d="M247.034 10.8217C247.034 10.8217 244.594 6.94139 241.935 8.77261C239.278 10.6038 236.154 15.5297 232.509 12.6824C229.972 10.6994 231.696 5.0666 235.051 5.54724C235.051 5.54724 238.755 -1.55983 245.117 0.314967C251.478 2.18976 249.038 5.98291 252.438 6.54928C255.837 7.11566 266.842 7.90689 265.013 19.5477C265.013 19.5477 260.305 18.2899 256.373 18.7298C251.46 19.2793 248.138 11.1716 248.138 11.1716C247.819 11.2587 247.034 10.8231 247.034 10.8231V10.8217Z" fill="#FBC343"/>
<path d="M247.645 13.0017C248.704 13.0017 249.562 11.8892 249.562 10.517C249.562 9.14468 248.704 8.03223 247.645 8.03223C246.586 8.03223 245.728 9.14468 245.728 10.517C245.728 11.8892 246.586 13.0017 247.645 13.0017Z" fill="#E28B6D"/>
<path d="M385.285 223.498H0.285156V224.457H385.285V223.498Z" fill="#B63333"/>
<path d="M322.236 188.978H295.899V204.309H322.236V188.978Z" fill="#1F3C88"/>
<path d="M325.301 223.948L339.335 231.001L334.56 212.739L328.388 211.553L321.926 213.863L325.301 223.948Z" fill="#102048"/>
<path d="M328.391 211.553L325.301 223.945C325.301 223.945 311.975 222.189 298.92 219.288C292.899 217.96 286.935 216.381 282.363 214.618C279.956 213.692 277.932 212.713 276.489 211.699C266.344 204.544 269.963 188.068 287.171 190.886C293.838 191.978 301.026 194.949 307.513 198.315C310.47 199.841 313.272 201.458 315.813 203.011C323.232 207.533 328.391 211.551 328.391 211.551V211.553Z" fill="#3A6BEA"/>
<path opacity="0.3" d="M315.813 203.012L298.918 219.289C292.898 217.961 286.934 216.383 282.362 214.619L307.512 198.316C310.468 199.843 313.27 201.459 315.811 203.012H315.813Z" fill="#102048"/>
<path d="M281.071 213.792L264.083 223.661L289.083 223.557L290.688 214.073L281.071 213.792Z" fill="#102048"/>
<path d="M295.953 211.615L290.688 214.073L289.083 223.557L289.424 223.555L299.883 223.696L303.534 219.13L295.953 211.615Z" fill="#F9B384"/>
<path d="M295.953 211.616C295.953 211.616 315.888 192.091 333.157 187.454C349.166 183.156 353.935 199.254 344.95 207.26C335.965 215.267 299.883 223.695 299.883 223.695L295.951 211.614L295.953 211.616Z" fill="#3A6BEA"/>
<path d="M299.962 224.006L299.806 223.387C312.187 220.259 324.91 216.862 334.09 213.224L334.326 213.818C325.111 217.471 312.364 220.875 299.962 224.007V224.006Z" fill="#102048"/>
<path d="M307.999 134.81C306.205 134.956 304.514 135.397 303.021 136.46C301.775 137.346 300.82 138.575 300.206 139.973C299.255 142.142 299.476 144.563 298.745 146.784C298.043 148.923 296.324 150.026 294.721 151.455C293.179 152.831 292.069 155.108 292.62 157.198C292.773 157.778 293.054 158.315 293.427 158.783C293.714 159.141 294.588 160.174 295.081 160.177L322.195 160.297C322.195 160.297 327.235 155.574 321.435 150.053C319.826 148.519 318.024 146.945 317.205 144.792C316.699 143.463 316.445 142.06 316.064 140.696C315.578 138.954 314.508 137.178 313.064 136.073C311.61 134.96 309.787 134.661 307.997 134.807L307.999 134.81Z" fill="#102048"/>
<path d="M305.719 136.45C305.719 136.45 301.201 133.008 305.68 131.448C309.106 130.255 312.318 131.608 310.28 136.049L305.721 136.45H305.719Z" fill="#102048"/>
<path d="M306.903 153.706C306.903 153.706 281.422 158.027 276.367 175.619C271.313 193.213 302.07 194.353 302.07 194.353C302.07 194.353 332.278 193.319 337.649 188.472C343.019 183.626 345.756 159.078 309.851 153.916L306.903 153.705V153.706Z" fill="#EB5D60"/>
<path d="M308.545 163.328C308.379 163.328 308.215 163.321 308.051 163.308C306.219 163.159 304.769 162.212 303.967 160.641L304.536 160.35C305.233 161.716 306.5 162.541 308.102 162.67C310.065 162.836 312.181 161.922 313.253 160.465L313.767 160.843C312.662 162.347 310.57 163.326 308.545 163.326V163.328Z" fill="#AB4446"/>
<path d="M285.403 174.027L285.001 174.524L298.329 185.304L298.731 184.807L285.403 174.027Z" fill="#AB4446"/>
<path d="M331.122 174.306L318.972 184.828L319.39 185.311L331.539 174.788L331.122 174.306Z" fill="#AB4446"/>
<path d="M321.569 173.794H295.046C294.154 173.794 293.432 174.517 293.432 175.409V193.916C293.432 194.808 294.154 195.531 295.046 195.531H321.569C322.46 195.531 323.183 194.808 323.183 193.916V175.409C323.183 174.517 322.46 173.794 321.569 173.794Z" fill="white"/>
<path d="M305.504 148.257L304.812 154.858C304.678 156.124 305.18 157.372 306.143 158.172C307.459 159.265 309.335 159.277 310.663 158.201L310.724 158.152C311.734 157.334 312.249 156.026 312.079 154.715L311.222 148.142L305.504 148.258V148.257Z" fill="#F9B384"/>
<path d="M305.379 149.616C307.399 153.577 309.679 153.658 311.418 149.715L307.839 149.256L305.379 149.616Z" fill="#102048"/>
<path d="M308.451 151.056C311.118 151.056 313.28 148.225 313.28 144.733C313.28 141.241 311.118 138.41 308.451 138.41C305.784 138.41 303.622 141.241 303.622 144.733C303.622 148.225 305.784 151.056 308.451 151.056Z" fill="#F9B384"/>
<path d="M314.078 143.693C314.078 143.693 309.239 143.613 307.64 139.692C307.64 139.692 305.04 140.613 304.36 143.974L302.52 144.615L302.48 139.334L306.559 136.732L310.199 136.813L313.399 139.494L314.078 143.696V143.693Z" fill="#102048"/>
<path d="M305.038 144.224C305.577 145.264 305.298 146.478 304.416 146.935C303.534 147.393 302.382 146.921 301.843 145.881C301.303 144.841 301.583 143.627 302.465 143.17C303.347 142.712 304.499 143.184 305.038 144.224Z" fill="#F9B384"/>
<path d="M312.04 144.224C311.501 145.264 311.78 146.478 312.663 146.935C313.545 147.393 314.696 146.921 315.236 145.881C315.775 144.841 315.496 143.627 314.614 143.17C313.732 142.712 312.58 143.184 312.04 144.224Z" fill="#F9B384"/>
</g>
<defs>
<clipPath id="clip0_315_2056">
<rect width="385" height="231" fill="white" transform="translate(0.285156)"/>
</clipPath>
</defs>
</svg>
