<svg width="50" height="50" viewBox="0 0 50 50" fill="none" xmlns="http://www.w3.org/2000/svg">
<path d="M42.6777 7.32227C37.9558 2.60049 31.6777 0 25 0C18.3223 0 12.0442 2.60049 7.32227 7.32227C2.60049 12.0442 0 18.3223 0 25C0 31.6777 2.60049 37.9558 7.32227 42.6777C12.0442 47.3995 18.3223 50 25 50C31.6777 50 37.9558 47.3995 42.6777 42.6777C47.3995 37.9558 50 31.6777 50 25C50 18.3223 47.3995 12.0442 42.6777 7.32227ZM41.6419 41.6419C37.1967 46.0871 31.2865 48.5352 25 48.5352C18.7135 48.5352 12.8033 46.0871 8.35811 41.6419C3.91289 37.1967 1.46484 31.2865 1.46484 25C1.46484 18.7135 3.91289 12.8033 8.35811 8.35811C12.8033 3.91289 18.7135 1.46484 25 1.46484C31.2865 1.46484 37.1967 3.91289 41.6419 8.35811C46.0871 12.8033 48.5352 18.7135 48.5352 25C48.5352 31.2865 46.0871 37.1967 41.6419 41.6419Z" fill="#E20505"/>
<path d="M25 7.82812C24.5955 7.82812 24.2676 8.15605 24.2676 8.56055V11.6918C24.2676 12.0963 24.5955 12.4242 25 12.4242C25.4045 12.4242 25.7324 12.0964 25.7324 11.6919V8.56055C25.7324 8.15605 25.4045 7.82812 25 7.82812Z" fill="#E20505"/>
<path d="M25 37.5757C24.5955 37.5757 24.2676 37.9036 24.2676 38.3081V41.4394C24.2676 41.8438 24.5955 42.1718 25 42.1718C25.4045 42.1718 25.7324 41.8438 25.7324 41.4394V38.3081C25.7324 37.9036 25.4045 37.5757 25 37.5757Z" fill="#E20505"/>
<path d="M41.4394 24.2676H38.3081C37.9036 24.2676 37.5757 24.5955 37.5757 25C37.5757 25.4045 37.9036 25.7324 38.3081 25.7324H41.4394C41.8438 25.7324 42.1718 25.4045 42.1718 25C42.1718 24.5955 41.8438 24.2676 41.4394 24.2676Z" fill="#E20505"/>
<path d="M11.6919 24.2676H8.56067C8.15618 24.2676 7.82825 24.5955 7.82825 25C7.82825 25.4045 8.15618 25.7324 8.56067 25.7324H11.6919C12.0964 25.7324 12.4243 25.4045 12.4243 25C12.4243 24.5955 12.0964 24.2676 11.6919 24.2676Z" fill="#E20505"/>
<path d="M12.4852 16.929L11.1294 16.1461C10.779 15.9438 10.3311 16.0639 10.1289 16.4142C9.92664 16.7645 10.0467 17.2125 10.397 17.4147L11.7528 18.1975C11.8681 18.2641 11.9941 18.2958 12.1183 18.2958C12.3715 18.2958 12.6177 18.1643 12.7533 17.9294C12.9555 17.5792 12.8355 17.1312 12.4852 16.929Z" fill="#E20505"/>
<path d="M39.603 32.5852L38.2472 31.8024C37.8969 31.6 37.4489 31.7202 37.2467 32.0705C37.0444 32.4208 37.1645 32.8687 37.5147 33.071L38.8706 33.8538C38.9859 33.9204 39.1119 33.952 39.2361 33.952C39.4893 33.952 39.7355 33.8206 39.8711 33.5857C40.0733 33.2354 39.9533 32.7875 39.603 32.5852Z" fill="#E20505"/>
<path d="M33.5859 10.1291C33.2356 9.92671 32.7876 10.0468 32.5854 10.3971L31.8026 11.753C31.6003 12.1033 31.7204 12.5512 32.0707 12.7535C32.186 12.8201 32.312 12.8517 32.4362 12.8517C32.6893 12.8517 32.9355 12.7203 33.0711 12.4854L33.854 11.1295C34.0562 10.7792 33.9362 10.3313 33.5859 10.1291Z" fill="#E20505"/>
<path d="M17.9294 37.2467C17.579 37.0444 17.1311 37.1645 16.9289 37.5148L16.1461 38.8707C15.9439 39.2209 16.0639 39.6689 16.4142 39.8711C16.5295 39.9377 16.6555 39.9694 16.7797 39.9694C17.0328 39.9694 17.279 39.8379 17.4147 39.6031L18.1975 38.2472C18.3997 37.8969 18.2797 37.449 17.9294 37.2467Z" fill="#E20505"/>
<path d="M39.8712 16.4142C39.669 16.0639 39.2209 15.9439 38.8707 16.1461L37.5149 16.9289C37.1646 17.1312 37.0446 17.5791 37.2468 17.9294C37.3824 18.1644 37.6286 18.2957 37.8818 18.2957C38.006 18.2957 38.132 18.2641 38.2473 18.1975L39.6032 17.4146C39.9534 17.2124 40.0735 16.7645 39.8712 16.4142Z" fill="#E20505"/>
<path d="M12.7533 32.0705C12.5511 31.7201 12.1031 31.6001 11.7528 31.8024L10.397 32.5852C10.0467 32.7875 9.92664 33.2354 10.1289 33.5857C10.2645 33.8207 10.5107 33.952 10.7638 33.952C10.8881 33.952 11.014 33.9204 11.1294 33.8538L12.4852 33.071C12.8355 32.8688 12.9555 32.4209 12.7533 32.0705Z" fill="#E20505"/>
<path d="M18.1975 11.753L17.4147 10.3971C17.2124 10.0467 16.7645 9.92673 16.4142 10.1291C16.0639 10.3313 15.9439 10.7793 16.1461 11.1296L16.9289 12.4854C17.0646 12.7204 17.3107 12.8517 17.5639 12.8517C17.6881 12.8517 17.8141 12.8201 17.9294 12.7535C18.2797 12.5512 18.3997 12.1033 18.1975 11.753Z" fill="#E20505"/>
<path d="M33.854 38.8707L33.0711 37.5148C32.869 37.1645 32.421 37.0444 32.0707 37.2467C31.7204 37.449 31.6003 37.8969 31.8026 38.2472L32.5854 39.6031C32.721 39.838 32.9672 39.9694 33.2204 39.9694C33.3446 39.9694 33.4706 39.9377 33.5859 39.8711C33.9362 39.6689 34.0562 39.2209 33.854 38.8707Z" fill="#E20505"/>
<path d="M35.9006 23.3227C35.8392 22.923 35.466 22.6487 35.0654 22.7102L27.0407 23.9448C26.6578 23.2071 25.8871 22.7017 25.0001 22.7017C24.6333 22.7017 24.2864 22.7886 23.9784 22.9423L16.1242 15.0881C15.8381 14.802 15.3744 14.802 15.0884 15.0881C14.8024 15.3741 14.8024 15.8379 15.0884 16.1238L22.9426 23.978C22.789 24.286 22.7021 24.6329 22.7021 24.9998C22.7021 26.267 23.7331 27.2978 25.0001 27.2978C26.1334 27.2978 27.077 26.4731 27.2639 25.3926L35.2882 24.1581C35.6879 24.0965 35.9622 23.7225 35.9006 23.3227ZM25 25.833C24.5406 25.833 24.1668 25.4592 24.1668 24.9998C24.1668 24.5404 24.5407 24.1666 25 24.1666C25.4594 24.1666 25.8333 24.5404 25.8333 24.9998C25.8333 25.4592 25.4595 25.833 25 25.833Z" fill="#E20505"/>
<path d="M38.1589 9.54519C34.2858 6.24089 29.3422 4.52459 24.2382 4.71384C19.1057 4.90359 14.2777 7.00955 10.6437 10.6435C7.00973 14.2775 4.90377 19.1055 4.71402 24.2381C4.52525 29.3419 6.24107 34.2857 9.54537 38.1587C9.6902 38.3285 9.89586 38.4157 10.1029 38.4157C10.2711 38.4157 10.44 38.3582 10.5779 38.2405C10.8856 37.978 10.9222 37.5157 10.6597 37.208C7.59439 33.615 6.0026 29.0282 6.17779 24.2922C6.35387 19.5303 8.30777 15.0511 11.6795 11.6793C15.0511 8.3075 19.5305 6.35369 24.2923 6.17761C29.0287 6.00252 33.6152 7.59421 37.2082 10.6595C37.5158 10.922 37.9782 10.8854 38.2407 10.5777C38.5032 10.27 38.4666 9.80769 38.1589 9.54519Z" fill="#E20505"/>
<path d="M40.4548 11.8411C40.1923 11.5334 39.7299 11.4966 39.4222 11.7592C39.1145 12.0217 39.0779 12.484 39.3404 12.7918C42.4057 16.3847 43.9974 20.9716 43.8223 25.7076C43.6463 30.4694 41.6924 34.9487 38.3207 38.3205C34.949 41.6923 30.4696 43.6461 25.7078 43.8221C20.9722 43.9974 16.3849 42.4056 12.792 39.3402C12.4843 39.0777 12.0219 39.1143 11.7594 39.422C11.4969 39.7298 11.5336 40.1921 11.8413 40.4546C15.5217 43.5945 20.1687 45.3 25.0014 45.3C25.2544 45.3 25.5081 45.2953 25.762 45.2859C30.8945 45.0962 35.7225 42.9902 39.3565 39.3562C42.9905 35.7222 45.0965 30.8942 45.2862 25.7617C45.4749 20.658 43.759 15.7141 40.4548 11.8411Z" fill="#E20505"/>
</svg>
