<svg width="48" height="48" viewBox="0 0 48 48" fill="none" xmlns="http://www.w3.org/2000/svg">
<g filter="url(#filter0_d_1032_59)">
<rect x="4" width="40" height="40" rx="12" fill="white"/>
</g>
<path d="M24 11C20.2774 11 17.25 14.0274 17.25 17.75C17.25 22.4289 23.343 28.5759 23.6017 28.8358C23.712 28.9449 23.856 29 24 29C24.144 29 24.288 28.9449 24.3983 28.8358C24.657 28.5759 30.75 22.4289 30.75 17.75C30.75 14.0274 27.7226 11 24 11ZM24 27.6241C22.6568 26.1864 18.375 21.3241 18.375 17.75C18.375 14.6484 20.8984 12.125 24 12.125C27.1016 12.125 29.625 14.6484 29.625 17.75C29.625 21.3208 25.3433 26.1864 24 27.6241Z" fill="black"/>
<path d="M24 14.375C22.1392 14.375 20.625 15.8892 20.625 17.75C20.625 19.6108 22.1392 21.125 24 21.125C25.8608 21.125 27.375 19.6108 27.375 17.75C27.375 15.8892 25.8608 14.375 24 14.375ZM24 20C22.7591 20 21.75 18.9909 21.75 17.75C21.75 16.5091 22.7591 15.5 24 15.5C25.2409 15.5 26.25 16.5091 26.25 17.75C26.25 18.9909 25.2409 20 24 20Z" fill="black"/>
<defs>
<filter id="filter0_d_1032_59" x="0" y="0" width="48" height="48" filterUnits="userSpaceOnUse" color-interpolation-filters="sRGB">
<feFlood flood-opacity="0" result="BackgroundImageFix"/>
<feColorMatrix in="SourceAlpha" type="matrix" values="0 0 0 0 0 0 0 0 0 0 0 0 0 0 0 0 0 0 127 0" result="hardAlpha"/>
<feOffset dy="4"/>
<feGaussianBlur stdDeviation="2"/>
<feComposite in2="hardAlpha" operator="out"/>
<feColorMatrix type="matrix" values="0 0 0 0 0.754167 0 0 0 0 0.754167 0 0 0 0 0.754167 0 0 0 0.25 0"/>
<feBlend mode="normal" in2="BackgroundImageFix" result="effect1_dropShadow_1032_59"/>
<feBlend mode="normal" in="SourceGraphic" in2="effect1_dropShadow_1032_59" result="shape"/>
</filter>
</defs>
</svg>
