<svg width="222" height="57" viewBox="0 0 222 57" fill="none" xmlns="http://www.w3.org/2000/svg">
<path d="M73.4 27.6301C71.84 28.9501 69.73 29.6101 67.05 29.6101C63.97 29.6101 61.62 28.6901 59.98 26.8501C58.3 24.9301 57.46 22.2801 57.46 18.8801C57.46 15.4001 58.32 12.7501 60.04 10.9101C61.72 9.0301 64.17 8.1001 67.41 8.1001C69.97 8.1001 72.02 8.7401 73.58 10.0201C75.06 11.3401 75.9 13.1401 76.1 15.4101H73.52C72.6 15.4101 71.94 14.9901 71.54 14.1501C70.82 12.6301 69.44 11.8701 67.41 11.8701C65.61 11.8701 64.19 12.4701 63.16 13.6701C62.2 14.8701 61.72 16.6101 61.72 18.8801C61.72 21.1201 62.2 22.8301 63.16 24.0301C64.12 25.2301 65.5 25.8301 67.29 25.8301C68.53 25.8301 69.57 25.5101 70.41 24.8701C71.21 24.1901 71.73 23.2501 71.97 22.0501H76.1C75.9 24.4601 75 26.3201 73.4 27.6301Z" fill="black"/>
<path d="M78.19 20.9203C78.31 15.6903 81.09 13.0703 86.52 13.0703H87.12V17.3203H85.74C83.46 17.3203 82.32 18.5003 82.32 20.8603V29.3103H78.19V20.9203Z" fill="black"/>
<path d="M103.66 21.2801C103.66 26.8701 101.2 29.6701 96.29 29.6701C91.38 29.6701 88.92 26.8701 88.92 21.2801C88.92 15.6501 91.38 12.8301 96.29 12.8301C101.2 12.8301 103.66 15.6501 103.66 21.2801ZM93.05 21.2801C93.09 24.4401 94.15 26.0101 96.22 26.0101C98.3 26.0101 99.36 24.3901 99.4 21.1601C99.4 18.0001 98.36 16.4301 96.28 16.4301C94.13 16.4301 93.05 18.0501 93.05 21.2801Z" fill="black"/>
<path d="M118.45 29.3101L116 17.6901L113.42 29.3101H109.17L104.74 13.0701H108.87L111.45 24.3301L113.79 13.0701H118.1L120.32 24.3301L122.54 14.5601C122.86 13.5601 123.52 13.0601 124.52 13.0601H127.22L122.73 29.3001H118.45V29.3101Z" fill="black"/>
<path d="M141.46 8.45996C142.02 8.45996 142.5 8.65996 142.9 9.05996C143.3 9.45996 143.5 9.93996 143.5 10.5V12.72V22.31C143.5 27.18 140.96 29.6 135.89 29.56C130.86 29.48 128.34 26.74 128.34 21.35C128.34 15.84 130.5 13 134.81 12.84C136.85 12.84 138.38 13.68 139.42 15.36V8.45996H141.46ZM136.01 16.49C133.81 16.49 132.65 18.05 132.53 21.16C132.49 24.44 133.63 26.07 135.95 26.07C138.27 26.07 139.43 24.43 139.43 21.16C139.34 18.05 138.21 16.49 136.01 16.49Z" fill="black"/>
<path d="M157.7 8.45996L165.19 29.31H160.7L159.32 25.06H151.23L149.85 29.31H145.3L152.25 9.83996C152.57 8.91996 153.25 8.45996 154.29 8.45996H157.7ZM152.37 21.52H158.12L155.24 12.65L152.37 21.52Z" fill="#E20505"/>
<path d="M170.46 33.6201C170.46 34.9801 169.78 35.6601 168.42 35.6601H166.38V20.1401C166.58 15.3101 169.12 12.8901 173.99 12.8901C179.02 12.8901 181.54 15.6301 181.54 21.1001C181.54 26.6101 179.38 29.4501 175.07 29.6101C173.03 29.6101 171.49 28.7701 170.46 27.0901V33.6201ZM177.35 21.2801C177.35 18.0001 176.19 16.3701 173.87 16.3701C171.55 16.3701 170.41 18.0101 170.45 21.2801C170.57 24.4001 171.73 25.9501 173.93 25.9501C176.13 25.9601 177.27 24.4001 177.35 21.2801Z" fill="#E20505"/>
<path d="M187.53 33.6201C187.53 34.9801 186.85 35.6601 185.49 35.6601H183.45V20.1401C183.65 15.3101 186.19 12.8901 191.06 12.8901C196.09 12.8901 198.61 15.6301 198.61 21.1001C198.61 26.6101 196.45 29.4501 192.14 29.6101C190.1 29.6101 188.56 28.7701 187.53 27.0901V33.6201ZM194.42 21.2801C194.42 18.0001 193.26 16.3701 190.94 16.3701C188.62 16.3701 187.48 18.0101 187.52 21.2801C187.64 24.4001 188.8 25.9501 191 25.9501C193.21 25.9601 194.34 24.4001 194.42 21.2801Z" fill="#E20505"/>
<path d="M204.25 23.9803C204.29 24.8203 204.59 25.4203 205.15 25.7803C205.67 26.1803 206.49 26.3803 207.61 26.3803C209.33 26.3803 210.19 25.8603 210.19 24.8203C210.19 23.9803 208.79 23.3203 206 22.8403C202.4 22.2003 200.59 20.6003 200.55 18.0503C200.55 16.4503 201.13 15.1703 202.29 14.2203C203.41 13.3403 204.99 12.8803 207.02 12.8403C209.1 12.8403 210.75 13.3003 211.99 14.2203C213.19 15.1803 213.83 16.5003 213.91 18.1703H211.33C210.37 18.1303 209.77 17.7903 209.53 17.1503C209.25 16.4303 208.43 16.0703 207.07 16.0703C205.47 16.0703 204.67 16.4903 204.67 17.3303C204.67 18.1703 205.73 18.7903 207.85 19.1903C210.61 19.7503 212.42 20.4503 213.3 21.2903C214.06 22.0903 214.44 23.0503 214.44 24.1703C214.44 25.9703 213.8 27.3303 212.52 28.2403C211.28 29.1603 209.44 29.6203 207.01 29.6203C204.73 29.6203 203.04 29.1403 201.92 28.1803C200.68 27.2603 200.06 25.8603 200.06 23.9903H204.25V23.9803Z" fill="#E20505"/>
<path d="M64.67 49.5504H63.25V46.4004L60.36 40.8604H61.95L63.95 45.1003L65.95 40.8604H67.55L64.68 46.4004V49.5504H64.67Z" fill="black"/>
<path d="M71.78 49.6601C70.78 49.6601 69.95 49.3301 69.3 48.6801C68.65 48.0301 68.32 47.1701 68.32 46.1101C68.32 45.0501 68.66 44.1901 69.33 43.5401C70 42.8901 70.84 42.5601 71.84 42.5601C72.84 42.5601 73.67 42.8901 74.35 43.5401C75.02 44.1901 75.36 45.0501 75.36 46.1101C75.36 47.1701 75.02 48.0301 74.33 48.6801C73.63 49.3301 72.79 49.6601 71.78 49.6601ZM73.26 47.8401C73.68 47.4201 73.88 46.8401 73.88 46.1001C73.88 45.3601 73.68 44.7801 73.27 44.3701C72.87 43.9601 72.38 43.7501 71.8 43.7501C71.23 43.7501 70.74 43.9601 70.35 44.3701C69.96 44.7801 69.76 45.3601 69.76 46.1101C69.76 46.8601 69.95 47.4401 70.34 47.8501C70.72 48.2601 71.2 48.4701 71.77 48.4701C72.35 48.4601 72.85 48.2501 73.26 47.8401Z" fill="black"/>
<path d="M81.7 42.6602H83.13V49.5502H81.7V48.4602C81.25 49.2502 80.52 49.6502 79.5 49.6502C78.72 49.6502 78.09 49.3902 77.58 48.8802C77.08 48.3702 76.82 47.6502 76.82 46.7202V42.6602H78.23V46.5102C78.23 47.1302 78.38 47.6002 78.69 47.9302C79 48.2602 79.42 48.4202 79.95 48.4202C80.48 48.4202 80.91 48.2602 81.22 47.9302C81.53 47.6002 81.69 47.1302 81.69 46.5102V42.6602H81.7Z" fill="black"/>
<path d="M91.84 40.8604C93.24 40.8604 94.36 41.2504 95.2 42.0404C96.04 42.8304 96.46 43.8904 96.46 45.2304C96.46 46.5704 96.04 47.6204 95.2 48.3904C94.36 49.1604 93.24 49.5504 91.84 49.5504H89V40.8604H91.84ZM90.43 48.4604H91.84C92.85 48.4604 93.63 48.1703 94.17 47.6003C94.72 47.0203 94.99 46.2404 94.99 45.2304C94.99 44.2304 94.72 43.4403 94.17 42.8703C93.62 42.3003 92.85 42.0103 91.84 42.0103H90.43V48.4604Z" fill="black"/>
<path d="M99.41 42.6603V43.8603C99.85 42.9903 100.54 42.5503 101.47 42.5503V44.0203H101.11C100.55 44.0203 100.13 44.1603 99.84 44.4503C99.55 44.7303 99.41 45.2203 99.41 45.9203V49.5403H97.99V42.6503H99.41V42.6603Z" fill="black"/>
<path d="M105.81 49.66C104.81 49.66 104 49.33 103.37 48.68C102.75 48.03 102.43 47.17 102.43 46.09C102.43 45.01 102.75 44.15 103.38 43.51C104.01 42.86 104.83 42.54 105.84 42.54C106.84 42.54 107.66 42.85 108.28 43.47C108.9 44.09 109.22 44.9 109.22 45.9C109.22 46.14 109.2 46.37 109.17 46.58H103.9C103.93 47.16 104.13 47.61 104.48 47.95C104.83 48.29 105.28 48.46 105.81 48.46C106.59 48.46 107.13 48.14 107.45 47.5H108.99C108.78 48.13 108.4 48.65 107.85 49.06C107.3 49.46 106.62 49.66 105.81 49.66ZM107.17 44.26C106.8 43.92 106.36 43.75 105.83 43.75C105.3 43.75 104.87 43.92 104.51 44.26C104.16 44.6 103.95 45.05 103.9 45.62H107.73C107.73 45.04 107.54 44.59 107.17 44.26Z" fill="black"/>
<path d="M111.21 48.6601C110.59 47.9901 110.27 47.1301 110.27 46.0901C110.27 45.0401 110.58 44.1901 111.2 43.5401C111.82 42.8901 112.59 42.5601 113.52 42.5601C114.06 42.5601 114.54 42.6801 114.95 42.9301C115.36 43.1801 115.68 43.5001 115.91 43.9001V42.6801H117.35V49.5701H115.91V48.2801C115.68 48.7001 115.36 49.0401 114.95 49.3001C114.54 49.5501 114.07 49.6801 113.52 49.6801C112.61 49.6601 111.84 49.3301 111.21 48.6601ZM115.29 47.7901C115.7 47.3701 115.91 46.8001 115.91 46.1001C115.91 45.4001 115.7 44.8301 115.29 44.4101C114.88 43.9901 114.39 43.7901 113.82 43.7901C113.25 43.7901 112.76 43.9901 112.35 44.4001C111.94 44.8101 111.73 45.3701 111.73 46.0801C111.73 46.7901 111.94 47.3601 112.35 47.7901C112.76 48.2201 113.25 48.4301 113.82 48.4301C114.39 48.4301 114.88 48.2101 115.29 47.7901Z" fill="black"/>
<path d="M120.77 42.66V43.75C121.23 42.95 121.96 42.55 122.97 42.55C123.5 42.55 123.98 42.67 124.39 42.92C124.81 43.17 125.12 43.53 125.34 44.01C125.58 43.55 125.92 43.19 126.35 42.93C126.78 42.67 127.26 42.54 127.81 42.54C128.6 42.54 129.25 42.8 129.76 43.31C130.27 43.82 130.52 44.55 130.52 45.48V49.54H129.1V45.7C129.1 45.08 128.95 44.61 128.64 44.28C128.33 43.95 127.91 43.79 127.38 43.79C126.85 43.79 126.43 43.95 126.12 44.28C125.81 44.61 125.66 45.08 125.66 45.7V49.55H124.25V45.7C124.25 45.08 124.1 44.61 123.79 44.28C123.48 43.95 123.06 43.79 122.53 43.79C122 43.79 121.57 43.95 121.26 44.28C120.95 44.61 120.79 45.08 120.79 45.7V49.55H119.37V42.66H120.77Z" fill="black"/>
<path d="M157.24 40.8604H158.77L156.2 49.5504H154.59L152.76 42.9804L150.82 49.5504L149.22 49.5604L146.76 40.8604H148.27L150.07 47.9403L152.02 40.8604H153.62L155.43 47.9004L157.24 40.8604Z" fill="#E20505"/>
<path d="M162.97 49.66C161.97 49.66 161.16 49.33 160.53 48.68C159.9 48.03 159.59 47.17 159.59 46.09C159.59 45.01 159.91 44.15 160.54 43.51C161.17 42.86 161.99 42.54 163 42.54C164.01 42.54 164.82 42.85 165.44 43.47C166.06 44.09 166.38 44.9 166.38 45.9C166.38 46.14 166.36 46.37 166.33 46.58H161.06C161.09 47.16 161.29 47.61 161.64 47.95C161.99 48.29 162.44 48.46 162.97 48.46C163.75 48.46 164.29 48.14 164.61 47.5H166.15C165.94 48.13 165.56 48.65 165.01 49.06C164.46 49.46 163.78 49.66 162.97 49.66ZM164.33 44.26C163.96 43.92 163.52 43.75 162.99 43.75C162.46 43.75 162.03 43.92 161.67 44.26C161.32 44.6 161.11 45.05 161.06 45.62H164.89C164.88 45.04 164.7 44.59 164.33 44.26Z" fill="#E20505"/>
<path d="M174.62 40.8604C176.02 40.8604 177.14 41.2504 177.98 42.0404C178.82 42.8304 179.24 43.8904 179.24 45.2304C179.24 46.5704 178.82 47.6204 177.98 48.3904C177.14 49.1604 176.02 49.5504 174.62 49.5504H171.78V40.8604H174.62ZM173.2 48.4604H174.61C175.62 48.4604 176.4 48.1703 176.94 47.6003C177.49 47.0203 177.76 46.2404 177.76 45.2304C177.76 44.2304 177.49 43.4403 176.94 42.8703C176.39 42.3003 175.62 42.0103 174.61 42.0103H173.2V48.4604Z" fill="#E20505"/>
<path d="M183.67 49.66C182.67 49.66 181.86 49.33 181.23 48.68C180.61 48.03 180.29 47.17 180.29 46.09C180.29 45.01 180.61 44.15 181.24 43.51C181.87 42.86 182.69 42.54 183.7 42.54C184.71 42.54 185.52 42.85 186.14 43.47C186.76 44.09 187.08 44.9 187.08 45.9C187.08 46.14 187.06 46.37 187.03 46.58H181.76C181.79 47.16 181.99 47.61 182.34 47.95C182.69 48.29 183.14 48.46 183.67 48.46C184.45 48.46 184.99 48.14 185.31 47.5H186.85C186.64 48.13 186.26 48.65 185.71 49.06C185.15 49.46 184.47 49.66 183.67 49.66ZM185.03 44.26C184.66 43.92 184.22 43.75 183.69 43.75C183.16 43.75 182.73 43.92 182.37 44.26C182.02 44.6 181.81 45.05 181.76 45.62H185.59C185.58 45.04 185.39 44.59 185.03 44.26Z" fill="#E20505"/>
<path d="M188.6 49.5503V40.3003H190.02V49.5503H188.6Z" fill="#E20505"/>
<path d="M193.65 40.8402C193.65 41.1002 193.56 41.3202 193.39 41.4902C193.22 41.6702 193 41.7502 192.75 41.7502C192.5 41.7502 192.28 41.6602 192.11 41.4902C191.94 41.3202 191.85 41.1002 191.85 40.8402C191.85 40.5802 191.94 40.3602 192.11 40.1902C192.29 40.0102 192.5 39.9302 192.75 39.9302C193 39.9302 193.22 40.0202 193.39 40.1902C193.56 40.3602 193.65 40.5802 193.65 40.8402ZM192.03 49.5502V42.6602H193.45V49.5502H192.03Z" fill="#E20505"/>
<path d="M194.64 42.6602H196.17L198.12 48.2702L200.07 42.6602H201.61L198.99 49.5502H197.27L194.64 42.6602Z" fill="#E20505"/>
<path d="M205.68 49.66C204.68 49.66 203.87 49.33 203.24 48.68C202.61 48.03 202.3 47.17 202.3 46.09C202.3 45.01 202.62 44.15 203.25 43.51C203.88 42.86 204.7 42.54 205.71 42.54C206.71 42.54 207.53 42.85 208.15 43.47C208.77 44.09 209.09 44.9 209.09 45.9C209.09 46.14 209.07 46.37 209.04 46.58H203.77C203.8 47.16 204 47.61 204.35 47.95C204.7 48.29 205.15 48.46 205.68 48.46C206.46 48.46 207 48.14 207.32 47.5H208.86C208.65 48.13 208.27 48.65 207.72 49.06C207.16 49.46 206.48 49.66 205.68 49.66ZM207.04 44.26C206.67 43.92 206.23 43.75 205.7 43.75C205.17 43.75 204.74 43.92 204.38 44.26C204.03 44.6 203.82 45.05 203.77 45.62H207.6C207.59 45.04 207.41 44.59 207.04 44.26Z" fill="#E20505"/>
<path d="M212.04 42.6603V43.8603C212.48 42.9903 213.17 42.5503 214.1 42.5503V44.0203H213.74C213.18 44.0203 212.76 44.1603 212.47 44.4503C212.18 44.7303 212.04 45.2203 212.04 45.9203V49.5403H210.62V42.6503H212.04V42.6603Z" fill="#E20505"/>
<path d="M138.87 51.1802H138.51V40.4302H138.87V51.1802Z" fill="black"/>
<g clip-path="url(#clip0_286_865)">
<path d="M25.8499 6C23.8799 6 21.9599 6.25 20.1199 6.72C29.6099 6.77 37.5499 13.37 39.6599 22.22C39.6899 22.33 39.7099 22.43 39.7299 22.54C39.9899 23.96 39.3199 25.45 37.9799 26.18C36.2999 27.09 34.2099 26.47 33.2999 24.79C31.8099 22.05 28.9599 20.35 25.8499 20.35C21.8399 20.35 18.4699 23.16 17.5999 26.91C17.4599 27.52 17.3799 28.16 17.3799 28.82C17.3799 29.48 17.4599 30.11 17.5999 30.72C18.4699 34.48 21.8399 37.29 25.8499 37.29C28.9599 37.29 31.8199 35.59 33.2999 32.85C34.2099 31.18 36.2999 30.55 37.9799 31.46C39.3199 32.18 39.9799 33.66 39.7299 35.08C39.6999 35.22 39.6699 35.36 39.6299 35.5C37.4899 44.33 29.5499 50.89 20.0799 50.92C21.9299 51.4 23.8699 51.65 25.8499 51.65C38.4399 51.65 48.6799 41.41 48.6799 28.82C48.6799 16.23 38.4299 6 25.8499 6Z" fill="#E20505"/>
<path d="M39.63 35.5101C39.56 35.7301 39.47 35.9401 39.36 36.1501C38.98 36.8501 38.55 37.5001 38.08 38.1201H38.11C35.3 41.8301 30.84 44.2301 25.84 44.2301C19.95 44.2301 14.66 40.9501 12.04 35.6601C11.13 33.8201 8.89996 33.0701 7.05996 33.9801C5.21996 34.8901 4.46996 37.1201 5.37996 38.9601C8.37996 45.0201 13.75 49.3001 20.07 50.9301C29.55 50.9001 37.48 44.3401 39.62 35.5101H39.63Z" fill="#E20505"/>
<path d="M5.38997 18.6902C4.47997 20.5302 5.22997 22.7602 7.06997 23.6702C8.90997 24.5802 11.14 23.8302 12.05 21.9902C14.67 16.7102 19.96 13.4302 25.85 13.4302C29.54 13.4302 32.93 14.7302 35.58 16.9002H35.55C37.08 18.1502 38.39 19.7002 39.37 21.5002C39.5 21.7302 39.59 21.9802 39.66 22.2202C37.54 13.3702 29.61 6.77021 20.12 6.72021C13.78 8.34021 8.38997 12.6302 5.38997 18.6902Z" fill="#E20505"/>
<path style="mix-blend-mode:multiply" d="M39.63 35.5101C39.56 35.7301 39.47 35.9401 39.36 36.1501C38.98 36.8501 38.55 37.5001 38.08 38.1201H38.11C35.3 41.8301 30.84 44.2301 25.84 44.2301C19.95 44.2301 14.66 40.9501 12.04 35.6601C11.13 33.8201 8.89996 33.0701 7.05996 33.9801C5.21996 34.8901 4.46996 37.1201 5.37996 38.9601C8.37996 45.0201 13.75 49.3001 20.07 50.9301C29.55 50.9001 37.48 44.3401 39.62 35.5101H39.63Z" fill="url(#paint0_linear_286_865)"/>
<path style="mix-blend-mode:multiply" d="M39.6368 22.4201C39.5668 22.2001 39.4768 21.9901 39.3668 21.7801C38.9868 21.0801 38.5568 20.4301 38.0868 19.8101H38.1168C35.3068 16.1001 30.8468 13.7001 25.8468 13.7001C19.9568 13.7001 14.6668 16.9801 12.0468 22.2701C11.1368 24.1101 8.9068 24.8601 7.0668 23.9501C5.2268 23.0401 4.4768 20.8101 5.3868 18.9701C8.3868 12.9101 13.7568 8.63012 20.0768 7.00012C29.5568 7.03012 37.4868 13.5901 39.6268 22.4201H39.6368Z" fill="url(#paint1_linear_286_865)"/>
<path style="mix-blend-mode:multiply" d="M5.38997 18.6902C4.47997 20.5302 5.22997 22.7602 7.06997 23.6702C8.90997 24.5802 11.14 23.8302 12.05 21.9902C14.67 16.7102 19.96 13.4302 25.85 13.4302C29.54 13.4302 32.93 14.7302 35.58 16.9002H35.55C37.08 18.1502 38.39 19.7002 39.37 21.5002C39.5 21.7302 39.59 21.9802 39.66 22.2202C37.54 13.3702 29.61 6.77021 20.12 6.72021C13.78 8.34021 8.38997 12.6302 5.38997 18.6902Z" fill="url(#paint2_linear_286_865)"/>
</g>
<defs>
<linearGradient id="paint0_linear_286_865" x1="4.99996" y1="42.2601" x2="39.63" y2="42.2601" gradientUnits="userSpaceOnUse">
<stop offset="0.5" stop-color="#F4F4F3"/>
<stop offset="1" stop-color="#808080"/>
</linearGradient>
<linearGradient id="paint1_linear_286_865" x1="5.0068" y1="15.6701" x2="39.6368" y2="15.6701" gradientUnits="userSpaceOnUse">
<stop offset="0.5" stop-color="#F4F4F3"/>
<stop offset="1" stop-color="#808080"/>
</linearGradient>
<linearGradient id="paint2_linear_286_865" x1="5.00317" y1="169.513" x2="1205.86" y2="169.513" gradientUnits="userSpaceOnUse">
<stop offset="0.5" stop-color="#F4F4F3"/>
<stop offset="1" stop-color="#757575"/>
</linearGradient>
<clipPath id="clip0_286_865">
<rect width="43.68" height="45.66" fill="white" transform="translate(5 6)"/>
</clipPath>
</defs>
</svg>
