<svg width="48" height="48" viewBox="0 0 48 48" fill="none" xmlns="http://www.w3.org/2000/svg">
<g filter="url(#filter0_d_1032_58)">
<rect x="4" width="40" height="40" rx="12" fill="white"/>
</g>
<path d="M31.418 13.1445H16.582C15.7108 13.1445 15 13.8545 15 14.7266V25.2734C15 26.1425 15.7076 26.8555 16.582 26.8555H31.418C32.287 26.8555 33 26.1478 33 25.2734V14.7266C33 13.8575 32.2924 13.1445 31.418 13.1445ZM31.1995 14.1992L24.0335 21.3652L16.8056 14.1992H31.1995ZM16.0547 25.055V14.9399L21.134 19.9757L16.0547 25.055ZM16.8005 25.8008L21.883 20.7182L23.6639 22.4839C23.8701 22.6883 24.2027 22.6876 24.4081 22.4822L26.1445 20.7458L31.1995 25.8008H16.8005ZM31.9453 25.055L26.8903 20L31.9453 14.945V25.055Z" fill="black"/>
<defs>
<filter id="filter0_d_1032_58" x="0" y="0" width="48" height="48" filterUnits="userSpaceOnUse" color-interpolation-filters="sRGB">
<feFlood flood-opacity="0" result="BackgroundImageFix"/>
<feColorMatrix in="SourceAlpha" type="matrix" values="0 0 0 0 0 0 0 0 0 0 0 0 0 0 0 0 0 0 127 0" result="hardAlpha"/>
<feOffset dy="4"/>
<feGaussianBlur stdDeviation="2"/>
<feComposite in2="hardAlpha" operator="out"/>
<feColorMatrix type="matrix" values="0 0 0 0 0.754167 0 0 0 0 0.754167 0 0 0 0 0.754167 0 0 0 0.25 0"/>
<feBlend mode="normal" in2="BackgroundImageFix" result="effect1_dropShadow_1032_58"/>
<feBlend mode="normal" in="SourceGraphic" in2="effect1_dropShadow_1032_58" result="shape"/>
</filter>
</defs>
</svg>
