<svg width="86" height="62" viewBox="0 0 86 62" fill="none" xmlns="http://www.w3.org/2000/svg">
<path d="M22.9978 0.753702L5.8978 26.5537C2.5978 31.3537 0.497797 36.4537 0.497797 42.4537C0.497797 54.4537 9.1978 61.6537 18.7978 61.6537C29.5978 61.6537 37.3978 53.5537 37.3978 42.4537C37.3978 36.1537 34.6978 30.4537 29.2978 26.8537L40.6978 0.753702H22.9978ZM73.9978 26.8537L85.3978 0.753702H67.6978L50.5978 26.5537C47.2978 31.3537 45.1978 36.4537 45.1978 42.4537C45.1978 54.4537 53.8978 61.6537 63.4978 61.6537C74.2978 61.6537 82.0978 53.5537 82.0978 42.4537C82.0978 36.1537 79.3978 30.4537 73.9978 26.8537Z" fill="#F9F1EF"/>
</svg>
