<svg width="54" height="54" viewBox="0 0 54 54" fill="none" xmlns="http://www.w3.org/2000/svg">
<g clip-path="url(#clip0_315_1719)">
<path d="M22.1863 47.8709L22.0277 48.6458L22.1806 47.8701C21.7521 47.7856 21.336 48.0645 21.2515 48.493C21.1671 48.9219 21.446 49.3376 21.8749 49.422C21.8761 49.4224 21.888 49.4245 21.8893 49.4249C21.9395 49.4344 21.9894 49.4393 22.0388 49.4393C22.4109 49.4393 22.7425 49.1756 22.8146 48.7966C22.897 48.3673 22.6156 47.9529 22.1863 47.8709Z" fill="#E20505"/>
<path d="M28.2343 48.125L28.313 48.9119L28.2318 48.1254C27.7972 48.1699 27.4812 48.5584 27.5261 48.993C27.5677 49.4001 27.9113 49.7033 28.3118 49.7033C28.339 49.7033 28.3666 49.7017 28.3937 49.6992L28.4156 49.6967C28.8482 49.646 29.1551 49.2559 29.1069 48.8233C29.0583 48.3911 28.6669 48.0797 28.2343 48.125Z" fill="#E20505"/>
<path d="M25.2062 48.2249C25.2062 48.2249 25.1951 48.2245 25.1947 48.2245C24.7588 48.2047 24.3946 48.5433 24.3748 48.9796C24.3554 49.4159 24.6982 49.7855 25.1345 49.8053C25.1469 49.8061 25.1588 49.8061 25.1712 49.8061C25.5914 49.8061 25.9416 49.4753 25.9605 49.0509C25.9803 48.6146 25.6429 48.2446 25.2062 48.2249Z" fill="#E20505"/>
<path d="M19.2645 47.0668L19.2547 47.0631C18.8435 46.9156 18.3952 47.1307 18.2478 47.5418C18.0998 47.953 18.3182 48.4078 18.7294 48.5557C18.8179 48.5875 18.9082 48.6023 18.9967 48.6023C19.321 48.6023 19.6254 48.4017 19.7412 48.0787C19.8891 47.6675 19.6757 47.2143 19.2645 47.0668Z" fill="#E20505"/>
<path d="M31.2195 47.5712L31.4143 48.3379L31.217 47.572C30.7939 47.6808 30.5393 48.1121 30.648 48.5352C30.7399 48.892 31.0613 49.1293 31.4135 49.1293C31.479 49.1293 31.5453 49.1211 31.6117 49.1038C31.615 49.1029 31.629 49.0992 31.6327 49.0984C32.0525 48.9839 32.298 48.5525 32.186 48.1319C32.0739 47.7117 31.6409 47.4616 31.2195 47.5712Z" fill="#E20505"/>
<path d="M34.0791 46.5741L34.3926 47.3L34.0766 46.5749C33.6761 46.7496 33.4928 47.2155 33.6671 47.616C33.7969 47.9139 34.0877 48.0914 34.393 48.0914C34.4981 48.0914 34.6056 48.07 34.7082 48.0255C34.7115 48.0239 34.7242 48.0185 34.7275 48.0169C35.1243 47.8376 35.2994 47.3729 35.1222 46.9754C34.9451 46.5774 34.4779 46.399 34.0791 46.5741Z" fill="#E20505"/>
<path d="M16.2429 10.5153C16.3698 10.5153 16.4988 10.4848 16.6179 10.4213C17.0035 10.2158 17.1489 9.73662 16.9433 9.351C16.7377 8.96579 16.259 8.81954 15.8734 9.02553L15.8639 9.03047C15.4787 9.23606 15.3374 9.71272 15.543 10.0983C15.6847 10.3645 15.9599 10.5153 16.2429 10.5153Z" fill="#E20505"/>
<path d="M7.09313 19.3505C7.21055 19.4119 7.3362 19.4411 7.46021 19.4411C7.7449 19.4411 8.0201 19.287 8.16142 19.0172L8.17542 18.9896C8.36823 18.5974 8.20673 18.1232 7.81452 17.9308C7.42519 17.7388 6.9547 17.897 6.75942 18.2838C6.55755 18.6703 6.70669 19.1478 7.09313 19.3505Z" fill="#E20505"/>
<path d="M5.97957 22.326C6.06362 22.3544 6.1489 22.368 6.23336 22.368C6.56295 22.368 6.8707 22.1599 6.98235 21.8303L6.99265 21.799C7.12119 21.3817 6.88677 20.9388 6.46902 20.8107C6.05497 20.683 5.61538 20.9128 5.48313 21.3248C5.34429 21.7381 5.56635 22.1863 5.97957 22.326Z" fill="#E20505"/>
<path d="M8.6538 16.5829C8.79429 16.6851 8.95702 16.7345 9.11852 16.7345C9.36283 16.7345 9.60426 16.6212 9.75875 16.4086L9.76905 16.3946C10.0228 16.0395 9.94003 15.5467 9.58572 15.293C9.231 15.0388 8.73661 15.1203 8.482 15.4747L9.11935 15.9435L8.47953 15.4779C8.22245 15.8314 8.30073 16.3262 8.6538 16.5829Z" fill="#E20505"/>
<path d="M13.5576 12.2235C13.7237 12.2235 13.8909 12.1712 14.0339 12.0624C14.3865 11.8045 14.4628 11.3097 14.2049 10.9571C13.9465 10.6044 13.4517 10.5282 13.0995 10.7861L13.0797 10.8005C12.732 11.0646 12.6628 11.5619 12.9269 11.91C13.0826 12.1152 13.3187 12.2235 13.5576 12.2235Z" fill="#E20505"/>
<path d="M5.27348 34.3222C5.37813 34.6621 5.69041 34.8801 6.02824 34.8801C6.10528 34.8801 6.18397 34.8685 6.26143 34.8446C6.67671 34.7173 6.91113 34.2773 6.78671 33.8612C6.66765 33.446 6.23712 33.2021 5.81813 33.3162C5.39667 33.4311 5.14824 33.8662 5.26318 34.2876C5.26565 34.2959 5.27101 34.314 5.27348 34.3222Z" fill="#E20505"/>
<path d="M11.1682 14.3082C11.3738 14.3082 11.5794 14.2287 11.7347 14.0705C12.0433 13.7615 12.0433 13.2605 11.7347 12.952C11.4257 12.643 10.9247 12.643 10.6157 12.952L10.6025 12.9651C10.2968 13.277 10.303 13.7772 10.6149 14.0829C10.7686 14.2336 10.9684 14.3082 11.1682 14.3082Z" fill="#E20505"/>
<path d="M6.1477 30.8736C6.09208 30.4439 5.69946 30.1391 5.26934 30.1902C4.83593 30.2421 4.52612 30.6355 4.57762 31.0693L4.58215 31.1011C4.63983 31.4941 4.97724 31.7759 5.36328 31.7759C5.40118 31.7759 5.4399 31.773 5.47904 31.7672C5.90957 31.7046 6.20826 31.3042 6.1477 30.8736Z" fill="#E20505"/>
<path d="M5.154 28.608C5.16224 28.608 5.17007 28.6084 5.1779 28.6084C5.60389 28.6084 5.95573 28.2693 5.96809 27.8404L5.96891 27.8066C5.96891 27.3695 5.6146 27.0156 5.1779 27.0156C4.74407 27.0156 4.39223 27.3642 4.38688 27.7963C4.37534 28.2322 4.71853 28.5952 5.154 28.608Z" fill="#E20505"/>
<path d="M5.32742 25.4358C5.37479 25.4441 5.42135 25.4482 5.4679 25.4482C5.84364 25.4482 6.17693 25.1791 6.24574 24.7964C6.2478 24.7849 6.24944 24.7733 6.25109 24.7618C6.31495 24.3296 6.01626 23.9275 5.58367 23.8641C5.15644 23.8006 4.7564 24.0944 4.6876 24.5204C4.61262 24.9497 4.89854 25.3588 5.32742 25.4358Z" fill="#E20505"/>
<path d="M42.641 16.8326C42.7943 17.0551 43.0406 17.1742 43.2919 17.1742C43.4464 17.1742 43.603 17.1289 43.7398 17.0345C44.0994 16.7873 44.1905 16.2946 43.9433 15.9345L43.2858 16.3745L43.9408 15.9308C43.6953 15.5691 43.2034 15.4747 42.842 15.7199C42.4803 15.965 42.386 16.4569 42.6311 16.8186L42.641 16.8326Z" fill="#E20505"/>
<path d="M46.6806 24.7926C46.2464 24.8412 45.9341 25.233 45.9831 25.6673L45.9872 25.7015C46.0437 26.0957 46.3823 26.3804 46.7696 26.3804C46.8067 26.3804 46.8446 26.3779 46.8825 26.3726C47.3113 26.3112 47.6104 25.9161 47.5548 25.4876C47.505 25.0546 47.1119 24.744 46.6806 24.7926Z" fill="#E20505"/>
<path d="M45.3457 22.5606L45.349 22.5709C45.4503 22.9157 45.7655 23.139 46.1074 23.139C46.1812 23.139 46.2562 23.1287 46.3307 23.1065C46.7501 22.9833 46.9899 22.5437 46.8667 22.1243L46.8634 22.114C46.7402 21.6946 46.3007 21.4548 45.8813 21.5784C45.4623 21.7016 45.2225 22.1412 45.3457 22.5606Z" fill="#E20505"/>
<path d="M44.2284 19.6029C44.3664 19.8835 44.6486 20.047 44.942 20.047C45.0586 20.047 45.1772 20.0211 45.2889 19.9659C45.6807 19.7731 45.8434 19.3018 45.6502 18.9095L44.9333 19.2437L45.6494 18.9079C45.464 18.5124 44.9931 18.3422 44.5976 18.5276C44.2021 18.713 44.0315 19.1839 44.2169 19.5794L44.2284 19.6029Z" fill="#E20505"/>
<path d="M40.6486 14.3624C40.8035 14.5206 41.0083 14.5998 41.2135 14.5998C41.4133 14.5998 41.6131 14.5248 41.7672 14.3736C42.077 14.0703 42.084 13.5747 41.7853 13.2624C41.4891 12.9431 40.9898 12.9238 40.6692 13.2196C40.3483 13.5158 40.3285 14.0164 40.6247 14.3373L40.6486 14.3624Z" fill="#E20505"/>
<path d="M46.9377 28.0955C46.503 28.0844 46.1393 28.4251 46.124 28.8597C46.1042 29.2927 46.4367 29.6614 46.8701 29.6858C46.8854 29.6866 46.8998 29.687 46.915 29.687C47.3315 29.687 47.6805 29.3611 47.704 28.9396L47.7052 28.9071C47.7176 28.4708 47.374 28.1083 46.9377 28.0955Z" fill="#E20505"/>
<path d="M35.5902 10.4779L35.6092 10.4882C35.727 10.5508 35.8535 10.5805 35.9779 10.5805C36.2593 10.5805 36.5316 10.4289 36.6746 10.1631C36.8806 9.77957 36.7356 9.30002 36.3532 9.09238L35.9705 9.78452L36.3508 9.09073C35.9676 8.88062 35.4868 9.0211 35.2767 9.40425C35.067 9.78699 35.2071 10.2682 35.5902 10.4779Z" fill="#E20505"/>
<path d="M38.2658 12.2131L38.2781 12.2226C38.4211 12.3309 38.5888 12.3833 38.7556 12.3833C38.9946 12.3833 39.2306 12.2753 39.3864 12.0702C39.6504 11.722 39.5821 11.226 39.2343 10.9619L39.229 10.9582C38.8825 10.6921 38.3861 10.7572 38.1199 11.1036C37.8538 11.4501 37.9193 11.947 38.2658 12.2131Z" fill="#E20505"/>
<path d="M53.5118 40.0707L49.7986 36.3509C49.4826 36.0345 49.0627 35.8602 48.6157 35.8602C48.1691 35.8602 47.7489 36.0345 47.4333 36.3509L47.3472 36.437L47.1033 36.1931C46.8022 35.8911 46.569 35.5397 46.4108 35.1569C46.3968 35.1063 46.3782 35.0568 46.3543 35.0103C46.2332 34.67 46.1702 34.3078 46.1702 33.9358V32.8836C46.2423 32.9215 46.321 32.9491 46.4054 32.9635C46.4507 32.9713 46.4957 32.9751 46.5401 32.9751C46.9155 32.9751 47.2475 32.7073 47.3172 32.3266C47.4016 31.8989 47.1243 31.4832 46.6963 31.3976C46.508 31.3601 46.3218 31.3926 46.1652 31.4775C46.1166 30.3536 45.6573 29.3038 44.858 28.5029L41.2556 24.8943C40.4473 24.0848 39.3724 23.639 38.2291 23.639C37.3442 23.639 36.5013 23.9072 35.7902 24.4037L35.4078 24.0193V14.972C35.4078 13.8815 35.0119 12.8293 34.2934 12.0098C33.7821 11.4273 33.5007 10.6791 33.5007 9.90294V9.24005H33.5551C34.4772 9.24005 35.2274 8.48982 35.2274 7.56738V2.30548C35.2274 1.38304 34.4772 0.632812 33.5551 0.632812H18.7792C17.8572 0.632812 17.1069 1.38304 17.1069 2.30548V7.56738C17.1069 8.48982 17.8572 9.24005 18.7792 9.24005H18.9012V9.58695C18.9012 10.4398 18.5695 11.2415 17.9676 11.8442L16.3728 13.4419C15.5266 14.2898 15.0606 15.4166 15.0606 16.6154V21.7187C15.0606 22.4121 15.2271 23.0668 15.52 23.6468C14.4711 23.7074 13.4934 24.1445 12.7444 24.8943L9.142 28.5029C8.29578 29.3508 7.82982 30.478 7.82982 31.6765V33.9358C7.82982 34.7886 7.49858 35.5904 6.89667 36.1931L6.65565 36.4345C6.65442 36.4353 6.65359 36.4362 6.65277 36.437L6.56708 36.3509C6.25108 36.0345 5.83127 35.8602 5.38426 35.8602C4.93767 35.8602 4.51744 36.0345 4.20186 36.3509L0.488205 40.0707C-0.162735 40.7229 -0.162735 41.7842 0.488205 42.4363L1.76001 43.7098C2.06859 44.0192 2.56956 44.0196 2.87856 43.711C3.18755 43.402 3.18837 42.9015 2.87938 42.5921L1.60799 41.3182C1.57214 41.2824 1.57214 41.2243 1.60799 41.1884L5.32164 37.4686C5.35625 37.434 5.41269 37.4336 5.4473 37.4686L6.09288 38.1154H6.09329L14.9086 46.946L15.8961 47.9356C15.932 47.9714 15.932 48.0295 15.8961 48.0653L12.1829 51.7852C12.1479 51.8202 12.0914 51.8202 12.0568 51.7852L5.11894 44.8353C4.81036 44.5259 4.30939 44.5255 4.0004 44.8341C3.69099 45.1431 3.69058 45.6437 3.99916 45.9531L10.9374 52.9029C11.253 53.2193 11.6732 53.3936 12.1203 53.3936C12.5668 53.3936 12.9867 53.2193 13.3027 52.9029L17.0159 49.183C17.6668 48.5313 17.6668 47.47 17.0159 46.8178L16.9755 46.7775L17.444 46.3082C17.9911 45.7598 18.7178 45.4303 19.4903 45.3804C20.5775 45.31 21.6005 44.8461 22.3705 44.0744L25.7818 40.6557C26.7656 40.3974 27.5315 39.5961 27.7395 38.5925C28.0901 38.7594 28.4819 38.8533 28.8956 38.8533C30.3832 38.8533 31.5937 37.6416 31.5937 36.1519V34.2736C31.934 34.429 32.3118 34.5163 32.7097 34.5163C34.1974 34.5163 35.4074 33.3046 35.4074 31.8149V26.2621L37.8406 28.7073C37.9951 28.8626 38.1982 28.9401 38.4013 28.9401C38.6032 28.9401 38.8051 28.8634 38.9596 28.7097C39.269 28.4016 39.2702 27.901 38.9621 27.5912L36.9334 25.5527C37.326 25.3364 37.7685 25.221 38.2291 25.221C38.9493 25.221 39.6266 25.502 40.1358 26.0125L43.7382 29.6207C44.2862 30.1698 44.5882 30.8999 44.5882 31.6765V33.9358C44.5882 35.2109 45.0838 36.4094 45.9836 37.3108L46.2291 37.5568L45.0817 38.7062L38.1422 45.6577L37.7553 45.27C37.7512 45.2663 37.7475 45.2622 37.7434 45.2585L37.6754 45.1901C36.8564 44.3698 35.7683 43.8767 34.6123 43.8017C33.909 43.7559 33.2474 43.456 32.7468 42.955L30.1476 40.3698C29.8378 40.0616 29.3368 40.0629 29.0286 40.3727C28.7209 40.6825 28.7221 41.1835 29.0319 41.4912L31.6295 44.0744C32.3995 44.8461 33.4225 45.31 34.5101 45.3804C35.2822 45.4303 36.0089 45.7598 36.556 46.3078L36.5944 46.3461C36.615 46.3696 36.6368 46.3914 36.6599 46.412L37.0245 46.777L36.9841 46.8178C36.3332 47.47 36.3332 48.5309 36.9841 49.183L40.6973 52.9029C41.0133 53.2193 41.4332 53.3936 41.8802 53.3936C42.3268 53.3936 42.747 53.2193 43.063 52.9029L53.5118 42.4359C54.1627 41.7838 54.1627 40.7229 53.5118 40.0707ZM46.7004 32.205L46.6856 32.2026L46.5414 32.1733L46.7004 32.205ZM21.2507 42.9567C20.7526 43.456 20.091 43.7559 19.3881 43.8017C18.2317 43.8767 17.1436 44.3698 16.3246 45.1901L15.8578 45.6577L15.4376 45.2366C15.4322 45.2313 15.4269 45.2255 15.4215 45.2206L7.7709 37.5568L8.01645 37.3108C8.91623 36.4094 9.41185 35.2109 9.41185 33.9358V31.6765C9.41185 30.8999 9.71342 30.1698 10.2618 29.6207L13.8642 26.0125C14.3734 25.502 15.0507 25.221 15.7709 25.221C16.2327 25.221 16.6768 25.3372 17.0707 25.5552L15.0388 27.5904C14.7302 27.8994 14.7306 28.4003 15.0396 28.7089C15.1941 28.863 15.3964 28.9401 15.5987 28.9401C15.8014 28.9401 16.0041 28.8626 16.1586 28.7081L18.5856 26.2766V36.1519C18.5856 37.6416 19.796 38.8533 21.2837 38.8533C21.7031 38.8533 22.1002 38.7569 22.4545 38.5855C22.6152 39.3695 23.1162 40.0303 23.7952 40.4069L21.2507 42.9567ZM33.8258 31.8153C33.8258 32.4325 33.3248 32.9347 32.7097 32.9347C32.0942 32.9347 31.5937 32.4325 31.5937 31.8153V22.9918C31.5937 22.5551 31.2398 22.2008 30.8026 22.2008C30.3655 22.2008 30.0116 22.5551 30.0116 22.9918V36.1523C30.0116 36.7695 29.5111 37.2713 28.8956 37.2713C28.3431 37.2713 27.8845 36.8667 27.796 36.3373V22.9827C27.796 22.5456 27.4421 22.1917 27.0049 22.1917C26.8645 22.1917 26.7322 22.2288 26.6177 22.293C26.3676 22.4261 26.1974 22.689 26.1974 22.9918V36.1519C26.1974 36.2524 26.2032 36.3509 26.2139 36.4485V38.0425C26.2139 38.6597 25.7134 39.1619 25.0979 39.1619C24.4828 39.1619 23.9822 38.6597 23.9822 38.0425V22.9732C23.9822 22.5365 23.6279 22.1822 23.1912 22.1822C22.7541 22.1822 22.3997 22.5365 22.3997 22.9732V36.1519C22.3997 36.769 21.8992 37.2713 21.2841 37.2713C20.6686 37.2713 20.168 36.769 20.168 36.1519V21.4378C20.168 21.0006 19.8137 20.6463 19.377 20.6463C18.9399 20.6463 18.586 21.0006 18.586 21.4378V24.1593C18.5197 24.1808 18.4554 24.2108 18.3956 24.2504C17.3727 23.866 16.6426 22.8764 16.6426 21.7187V16.6154C16.6426 15.8389 16.9446 15.1088 17.4926 14.5596L19.0874 12.9619C19.9876 12.0605 20.4832 10.862 20.4832 9.58695V9.24005H22.0735C22.5106 9.24005 22.8645 8.88574 22.8645 8.44904C22.8645 8.01192 22.5106 7.65802 22.0735 7.65802H18.7792C18.7294 7.65802 18.689 7.61723 18.689 7.56738V2.30548C18.689 2.25563 18.7294 2.21484 18.7792 2.21484H33.5547C33.605 2.21484 33.6454 2.25563 33.6454 2.30548V7.56738C33.6454 7.61765 33.605 7.65802 33.5547 7.65802H25.7871C25.3504 7.65802 24.9961 8.01192 24.9961 8.44904C24.9961 8.88574 25.3504 9.24005 25.7871 9.24005H31.9187V9.90294C31.9187 11.0631 32.3394 12.1816 33.1036 13.0534C33.5691 13.584 33.8258 14.2655 33.8258 14.972V31.8153ZM52.392 41.3182L41.9432 51.7852C41.9259 51.8029 41.9049 51.8115 41.8802 51.8115C41.8559 51.8115 41.8348 51.8029 41.8171 51.7852L38.1039 48.0653C38.068 48.0295 38.068 47.9714 38.1039 47.9356L38.7017 47.3365L38.7021 47.3361L44.7678 41.2601L48.5527 37.4686C48.5873 37.4336 48.6438 37.4336 48.6784 37.4686L52.392 41.1884C52.4279 41.2243 52.4279 41.2824 52.392 41.3182Z" fill="#E20505"/>
<path d="M21.2836 4.09277C20.8193 4.09277 20.4415 4.47139 20.4415 4.93652C20.4415 5.40207 20.8193 5.78027 21.2836 5.78027C21.7484 5.78027 22.1261 5.40207 22.1261 4.93652C22.1261 4.47139 21.7484 4.09277 21.2836 4.09277Z" fill="#E20505"/>
<path d="M48.8744 40.1504C48.4097 40.1504 48.0319 40.529 48.0319 40.9941C48.0319 41.4593 48.4097 41.8379 48.8744 41.8379C49.3387 41.8379 49.7165 41.4593 49.7165 40.9941C49.7165 40.529 49.3387 40.1504 48.8744 40.1504Z" fill="#E20505"/>
<path d="M13.1819 48.2207C13.1819 47.7556 12.8041 47.377 12.3398 47.377C11.8751 47.377 11.4973 47.7556 11.4973 48.2207C11.4973 48.6858 11.8751 49.0645 12.3398 49.0645C12.8041 49.0645 13.1819 48.6858 13.1819 48.2207Z" fill="#E20505"/>
</g>
<defs>
<clipPath id="clip0_315_1719">
<rect width="54" height="54" fill="white"/>
</clipPath>
</defs>
</svg>
