<svg width="222" height="81" viewBox="0 0 222 81" fill="none" xmlns="http://www.w3.org/2000/svg">
<path fill-rule="evenodd" clip-rule="evenodd" d="M41.832 71.1014C41.832 71.1014 50.7715 49.3418 73.1499 56.0015C73.1499 56.0015 68.8471 70.3091 55.1407 73.0799C55.1407 73.0799 47.9162 73.9449 41.832 71.1014Z" fill="#059508"/>
<path fill-rule="evenodd" clip-rule="evenodd" d="M27.9949 61.4078C28.5827 61.9933 39.5753 71.2323 39.8847 71.4942C41.0206 46.5501 20.9759 42.8153 20.9759 42.8153C13.7249 42.2211 6.17773 40.6387 6.17773 40.6387C6.57553 73.7721 39.8449 72.2623 39.8449 72.2623C34.5497 69.2714 27.9949 61.4078 27.9949 61.4078Z" fill="#059508"/>
<path d="M37.6417 29.7691H25.3961L24.0546 19.434H20.6777V18.4238H24.9475L26.2889 28.7589H36.9853L39.8561 22.3699H26.3884V21.3597H41.4252L37.6417 29.7691Z" fill="#00254D"/>
<path d="M39.5226 23.8477H27.4648V24.8578H39.5226V23.8477Z" fill="#00254D"/>
<path d="M38.4105 26.3184H28.8545V27.3285H38.4105V26.3184Z" fill="#00254D"/>
<path d="M30.8417 31.293H26.373V32.0501H30.8417V31.293Z" fill="#00254D"/>
<path d="M36.2362 31.293H31.7676V32.0501H36.2362V31.293Z" fill="#00254D"/>
<path d="M30.8415 11.4144C38.5323 11.4144 44.7888 17.6449 44.7888 25.3038C44.7888 26.2612 44.6916 27.1965 44.506 28.0988C39.4539 29.5822 35.5091 33.6581 34.2339 38.7751C33.1466 39.0458 32.0106 39.1932 30.8415 39.1932C23.1507 39.1932 16.8942 32.9627 16.8942 25.3038C16.8942 17.6449 23.1507 11.4144 30.8415 11.4144ZM30.8415 10.457C22.6203 10.457 15.9307 17.1167 15.9307 25.306C15.9307 33.4931 22.6203 40.1528 30.8415 40.1528C32.0637 40.1528 33.2836 40.0031 34.4681 39.706L35.0295 39.5651L35.1687 39.0061C36.3577 34.2348 40.0395 30.4075 44.7778 29.0166L45.3325 28.8537L45.4496 28.2903C45.6507 27.3132 45.7524 26.3074 45.7524 25.3038C45.7524 17.1189 39.0627 10.457 30.8415 10.457Z" fill="#00254D"/>
<path d="M49.0431 58.1438C40.5523 58.1438 33.6416 51.2641 33.6416 42.8063C33.6416 34.3485 40.5501 27.4688 49.0431 27.4688C57.5361 27.4688 64.4446 34.3485 64.4446 42.8063C64.4446 51.2641 57.5361 58.1438 49.0431 58.1438ZM49.0431 28.4261C41.0805 28.4261 34.6052 34.8767 34.6052 42.8063C34.6052 50.7359 41.0827 57.1865 49.0431 57.1865C57.0035 57.1865 63.481 50.7359 63.481 42.8063C63.481 34.8767 57.0057 28.4261 49.0431 28.4261Z" fill="#00254D"/>
<path d="M51.4167 35.9863H45.1646C44.8795 35.9863 44.6475 36.1844 44.6475 36.4265C44.6475 36.6708 44.8795 36.8667 45.1646 36.8667H51.4167C51.7018 36.8667 51.9338 36.6686 51.9338 36.4265C51.9338 36.1844 51.704 35.9863 51.4167 35.9863Z" fill="#00254D"/>
<path d="M51.4167 38.4629H45.1646C44.8795 38.4629 44.6475 38.661 44.6475 38.9031C44.6475 39.1473 44.8795 39.3432 45.1646 39.3432H51.4167C51.7018 39.3432 51.9338 39.1451 51.9338 38.9031C51.9338 38.661 51.704 38.4629 51.4167 38.4629Z" fill="#00254D"/>
<path d="M51.4167 40.9375H45.1646C44.8795 40.9375 44.6475 41.1356 44.6475 41.3777C44.6475 41.622 44.8795 41.8178 45.1646 41.8178H51.4167C51.7018 41.8178 51.9338 41.6198 51.9338 41.3777C51.9338 41.1334 51.704 40.9375 51.4167 40.9375Z" fill="#00254D"/>
<path d="M51.4167 43.4141H45.1646C44.8795 43.4141 44.6475 43.6121 44.6475 43.8542C44.6475 44.0985 44.8795 44.2944 45.1646 44.2944H51.4167C51.7018 44.2944 51.9338 44.0963 51.9338 43.8542C51.9338 43.6099 51.704 43.4141 51.4167 43.4141Z" fill="#00254D"/>
<path d="M49.3876 46.1406H45.1666C44.8815 46.1406 44.6494 46.3387 44.6494 46.5808C44.6494 46.8229 44.8815 47.0209 45.1666 47.0209H49.3876C49.6727 47.0209 49.9048 46.8229 49.9048 46.5808C49.9048 46.3387 49.6727 46.1406 49.3876 46.1406Z" fill="#00254D"/>
<path d="M54.6742 49.1801C54.7913 49.0876 54.8576 48.9644 54.8576 48.8345V34.0318C54.8576 33.7611 54.577 33.541 54.2322 33.541H43.1977C42.8529 33.541 42.5723 33.7611 42.5723 34.0318V48.8345C42.5723 48.9644 42.6386 49.0898 42.7557 49.1801L44.5988 50.6238C44.8419 50.8153 45.2397 50.8153 45.485 50.6238L46.8862 49.5278L48.2873 50.6238C48.4044 50.7162 48.5636 50.7669 48.7293 50.7669C48.8951 50.7669 49.0542 50.7162 49.1713 50.6238L50.5725 49.5278L51.9736 50.6238C52.0907 50.7162 52.2498 50.7669 52.4156 50.7669C52.5813 50.7669 52.7405 50.7162 52.8576 50.6238L54.6742 49.1801ZM52.4333 49.8271L51.0366 48.7135C50.7935 48.522 50.3957 48.522 50.1503 48.7135L48.7514 49.8271L47.3702 48.7553C47.253 48.6629 47.0939 48.6123 46.9282 48.6123C46.7624 48.6123 46.6033 48.6629 46.4862 48.7553L45.043 49.8271L43.4806 48.6365V34.527L53.9096 34.45V48.588" fill="#00254D"/>
<path d="M69.6646 10.101C69.6646 9.33732 69.932 8.67707 70.469 8.11586C71.006 7.55685 71.658 7.27734 72.4227 7.27734H82.54C85.402 7.27734 87.5722 7.88697 89.0551 9.10843C90.4342 10.3299 91.1237 12.238 91.1237 14.8328C91.1237 16.512 90.7922 17.8611 90.127 18.8779C89.4109 19.9981 88.4142 20.7354 87.1368 21.0919C88.2617 21.4991 89.1037 22.1087 89.6651 22.923C90.1248 23.8386 90.4054 25.1612 90.5071 26.8911L90.7369 32.0806C90.7878 32.895 91.0684 33.4804 91.5789 33.8369H85.6009C85.3445 33.3285 85.192 32.7937 85.1412 32.2347C85.0395 31.8275 84.9622 30.3266 84.9114 27.7318C84.8097 26.0526 84.5025 24.9324 83.992 24.3734C83.4307 23.8143 82.4074 23.5348 80.9267 23.5348H75.1012V33.8391H69.6602V10.101H69.6646ZM81.5433 18.8779C82.8715 18.8779 83.9191 18.5984 84.6859 18.0394C85.2981 17.4298 85.6053 16.5384 85.6053 15.3676C85.6053 14.1967 85.2981 13.3318 84.6859 12.7728C84.0738 12.1632 83.1279 11.8573 81.8505 11.8573H75.1056V18.8801H81.5433V18.8779Z" fill="#00254D"/>
<path d="M112.507 27.5027C111.895 29.8422 110.872 31.5478 109.442 32.6174C107.756 33.7376 105.762 34.2966 103.464 34.2966C97.1788 34.092 94.0361 30.4804 94.0361 23.4576C94.0361 16.4348 97.2031 12.9002 103.539 12.8496C110.129 12.8496 113.221 16.8947 112.812 24.985H99.3998C99.6053 28.1387 100.984 29.7167 103.539 29.7167C104.766 29.7167 105.888 29.2325 106.912 28.2664C107.371 27.758 107.959 27.5027 108.675 27.5027H112.507ZM107.296 21.2436C106.989 18.4969 105.712 17.1214 103.464 17.1214C101.216 17.1214 99.8882 18.4947 99.4794 21.2436H107.296Z" fill="#00254D"/>
<path d="M133.584 27.5027C133.074 29.7916 132.077 31.4708 130.597 32.5404C128.961 33.7618 127.019 34.3473 124.771 34.2966C118.486 34.2966 115.268 30.7335 115.113 23.6116C115.113 16.5382 118.307 12.9508 124.694 12.8496C129.701 12.8496 132.665 15.0878 133.584 19.5665H127.914C127.299 18.1426 126.177 17.4295 124.541 17.4295C121.781 17.4295 120.402 19.4895 120.402 23.6116C120.402 27.7338 121.858 29.7696 124.771 29.7189C125.998 29.7189 127.045 29.2347 127.914 28.2686C128.424 27.7602 129.012 27.5049 129.677 27.5049H133.584V27.5027Z" fill="#00254D"/>
<path d="M154.662 27.5027C154.049 29.8422 153.026 31.5478 151.596 32.6174C149.91 33.7376 147.917 34.2966 145.618 34.2966C139.333 34.092 136.19 30.4804 136.19 23.4576C136.19 16.4348 139.357 12.9002 145.693 12.8496C152.284 12.8496 155.375 16.8947 154.967 24.985H141.554C141.76 28.1387 143.139 29.7167 145.693 29.7167C146.92 29.7167 148.043 29.2325 149.066 28.2664C149.526 27.758 150.113 27.5027 150.829 27.5027H154.662ZM149.45 21.2436C149.143 18.4969 147.866 17.1214 145.618 17.1214C143.371 17.1214 142.043 18.4947 141.634 21.2436H149.45Z" fill="#00254D"/>
<path d="M160.105 7.27734C161.842 7.27734 162.686 8.11586 162.633 9.79509V11.3225H157.422V7.27734H160.105ZM160.105 13.1535C161.791 13.1535 162.633 13.9921 162.633 15.6713V33.8369H157.422V13.1535H160.105Z" fill="#00254D"/>
<path d="M170.834 39.3315C170.834 41.0614 169.966 41.9263 168.229 41.9263H165.623V22.1585C165.879 16.0028 169.124 12.9238 175.356 12.9238C181.794 12.9238 185.014 16.4099 185.014 23.38C185.014 30.4006 182.253 34.0143 176.737 34.2168C174.132 34.2168 172.165 33.1494 170.836 31.0102V39.3315H170.834ZM179.648 23.6088C179.648 19.4361 178.167 17.3497 175.203 17.3497C172.24 17.3497 170.783 19.4361 170.834 23.6088C170.987 27.5769 172.47 29.5621 175.279 29.5621C178.09 29.5621 179.546 27.5769 179.648 23.6088Z" fill="#00254D"/>
<path d="M190.34 33.5706C188.373 33.3923 187.416 32.1577 187.467 29.8688V7.27734H190.15C190.813 7.27734 191.401 7.53044 191.913 8.04103C192.424 8.54942 192.68 9.16125 192.68 9.87212V13.1535H195.823V14.298C195.823 15.0617 195.566 15.6845 195.056 16.1687C194.545 16.6529 193.931 16.8927 193.217 16.8927H192.68V28.3414C192.68 29.2064 193.191 29.6377 194.214 29.6377H195.823V33.6058C194.134 33.7599 192.307 33.7467 190.34 33.5706Z" fill="#00254D"/>
<path d="M202.795 27.043C202.846 28.1126 203.231 28.8741 203.945 29.3318C204.61 29.8402 205.657 30.0955 207.087 30.0955C209.284 30.0955 210.382 29.4353 210.382 28.1104C210.382 27.0408 208.594 26.2023 205.016 25.5926C200.417 24.7783 198.092 22.7426 198.042 19.4875C198.042 17.4518 198.782 15.8232 200.265 14.6039C201.695 13.4837 203.715 12.8983 206.32 12.8477C208.977 12.8477 211.098 13.4331 212.683 14.6039C214.217 15.8254 215.032 17.5046 215.136 19.6416H211.841C210.614 19.591 209.847 19.1574 209.542 18.3431C209.184 17.4276 208.137 16.9698 206.4 16.9698C204.356 16.9698 203.335 17.5046 203.335 18.572C203.335 19.6416 204.689 20.4295 207.397 20.9379C210.921 21.651 213.246 22.5401 214.371 23.6097C215.341 24.6265 215.828 25.8479 215.828 27.2741C215.828 29.5629 215.01 31.2928 213.375 32.4636C211.79 33.6345 209.441 34.2199 206.322 34.2199C203.41 34.2199 201.239 33.6102 199.807 32.3888C198.223 31.2179 197.432 29.4375 197.432 27.0452H202.795V27.043Z" fill="#00254D"/>
<path d="M78.5879 48.3764C78.5879 47.6127 78.8553 46.9525 79.3923 46.3913C79.9294 45.8322 80.5813 45.5527 81.346 45.5527H86.6345L91.9982 65.7783L97.2094 45.5527H105.333V72.1123H100.199V50.6653L94.7585 72.1123H89.165L83.7239 50.6653V72.1123H78.5879V48.3764Z" fill="#00254D"/>
<path d="M110.779 45.5527C112.516 45.5527 113.36 46.3912 113.307 48.0705V49.5979H108.096V45.5527H110.779ZM110.779 51.4311C112.465 51.4311 113.307 52.2697 113.307 53.9489V72.1145H108.096V51.4311H110.779Z" fill="#00254D"/>
<path d="M131.318 72.114C129.581 72.0128 128.713 71.1479 128.713 69.5193V58.9113C128.611 56.7743 127.409 55.7047 125.11 55.7047C122.812 55.7047 121.636 56.7743 121.585 58.9113V72.1162H116.297V59.9809C116.297 54.0783 119.26 51.127 125.188 51.127C131.115 51.127 134.052 54.0783 134.001 59.9809V72.1162H131.318V72.114Z" fill="#00254D"/>
<path d="M152.932 45.5527C153.648 45.5527 154.261 45.8058 154.771 46.3164C155.282 46.8248 155.538 47.4366 155.538 48.1475V50.9712V63.1835C155.538 69.3921 152.294 72.4688 145.805 72.4182C139.367 72.317 136.147 68.8309 136.147 61.9621C136.147 54.9393 138.908 51.3277 144.424 51.123C147.03 51.123 148.996 52.1926 150.325 54.3296V45.5527H152.932ZM145.958 55.78C143.147 55.78 141.666 57.7651 141.513 61.7332C141.463 65.906 142.919 67.9924 145.883 67.9924C148.846 67.9924 150.327 65.906 150.327 61.7332C150.223 57.7651 148.769 55.78 145.958 55.78Z" fill="#00254D"/>
<path d="M176.232 65.7801C175.62 68.1195 174.597 69.8252 173.167 70.8948C171.48 72.015 169.487 72.574 167.189 72.574C160.903 72.3693 157.761 68.7578 157.761 61.7349C157.761 54.7121 160.928 51.1776 167.264 51.127C173.854 51.127 176.946 55.1721 176.537 63.2623H163.124C163.33 66.4161 164.709 67.9941 167.264 67.9941C168.49 67.9941 169.613 67.5099 170.636 66.5437C171.096 66.0354 171.684 65.7801 172.4 65.7801H176.232ZM171.019 59.5209C170.711 56.7743 169.434 55.3988 167.186 55.3988C164.939 55.3988 163.611 56.7721 163.202 59.5209H171.019Z" fill="#00254D"/>
<path d="M178.99 61.43C179.143 54.7637 182.694 51.4316 189.643 51.4316H190.41V56.8501H188.646C185.733 56.8501 184.277 58.351 184.277 61.353V72.115H178.988V61.43H178.99Z" fill="#00254D"/>
</svg>
