<svg width="266" height="63" viewBox="0 0 266 63" fill="none" xmlns="http://www.w3.org/2000/svg">
<path d="M100.187 24.4746H90.8573V45.4746H100.457C105.257 45.4746 108.227 43.2846 108.227 39.6846C108.227 36.8946 106.547 34.8846 103.757 34.3746C106.037 33.8046 107.417 32.0346 107.417 29.7246C107.417 26.4846 104.657 24.4746 100.187 24.4746ZM99.9773 33.0546H94.8773V27.9546H99.9773C102.047 27.9246 103.307 28.8546 103.307 30.4446C103.307 32.0946 102.047 33.0546 99.9773 33.0546ZM99.9773 41.9946H94.8773V36.4446H99.9773C102.527 36.4146 104.057 37.4646 104.057 39.1746C104.057 40.9746 102.527 42.0246 99.9773 41.9946ZM118.667 29.3046C113.867 29.3046 110.507 32.6046 110.507 37.4946C110.507 42.3246 113.777 45.6246 118.757 45.6246C121.577 45.6246 123.917 44.6046 125.507 42.8646L123.407 40.6746C122.267 41.8446 120.737 42.4746 119.087 42.4746C116.747 42.4746 115.007 41.0946 114.497 38.8146H126.347C126.737 32.9946 124.307 29.3046 118.667 29.3046ZM114.407 36.2046C114.767 33.8346 116.387 32.3346 118.697 32.3346C121.127 32.3346 122.717 33.8346 122.807 36.2046H114.407ZM141.311 23.2146V32.0646C140.141 30.2646 138.281 29.2746 135.821 29.2746C131.321 29.2746 128.261 32.5446 128.261 37.4046C128.261 42.2946 131.321 45.6546 135.911 45.6546C138.311 45.6546 140.171 44.6646 141.311 42.8946V45.4746H145.211V23.2146H141.311ZM136.751 42.3846C134.051 42.3846 132.221 40.3746 132.191 37.4946C132.221 34.6446 134.081 32.6046 136.751 32.6046C139.451 32.6046 141.311 34.6146 141.311 37.4946C141.311 40.3746 139.451 42.3846 136.751 42.3846ZM168.683 24.4746H159.353V45.4746H168.953C173.753 45.4746 176.723 43.2846 176.723 39.6846C176.723 36.8946 175.043 34.8846 172.253 34.3746C174.533 33.8046 175.913 32.0346 175.913 29.7246C175.913 26.4846 173.153 24.4746 168.683 24.4746ZM168.473 33.0546H163.373V27.9546H168.473C170.543 27.9246 171.803 28.8546 171.803 30.4446C171.803 32.0946 170.543 33.0546 168.473 33.0546ZM168.473 41.9946H163.373V36.4446H168.473C171.023 36.4146 172.553 37.4646 172.553 39.1746C172.553 40.9746 171.023 42.0246 168.473 41.9946ZM191.363 29.4246V37.3446C191.363 39.9246 189.863 41.9046 187.343 41.9346C185.183 41.9346 183.893 40.5846 183.893 38.3346V29.4246H179.963V39.4746C179.963 43.2546 182.183 45.6246 185.783 45.6246C188.333 45.6246 190.253 44.6346 191.363 42.5046V45.4746H195.293V29.4246H191.363ZM204.06 32.5146V29.4246H200.16V45.4746H204.06V37.7346C204.06 34.8246 206.13 32.8446 209.52 33.0546V29.2746C207.03 29.3046 205.14 30.4146 204.06 32.5146ZM218.95 29.3046C214.15 29.3046 210.79 32.6046 210.79 37.4946C210.79 42.3246 214.06 45.6246 219.04 45.6246C221.86 45.6246 224.2 44.6046 225.79 42.8646L223.69 40.6746C222.55 41.8446 221.02 42.4746 219.37 42.4746C217.03 42.4746 215.29 41.0946 214.78 38.8146H226.63C227.02 32.9946 224.59 29.3046 218.95 29.3046ZM214.69 36.2046C215.05 33.8346 216.67 32.3346 218.98 32.3346C221.41 32.3346 223 33.8346 223.09 36.2046H214.69ZM243.334 45.4746L243.304 34.9746C243.274 31.4046 240.904 29.2746 236.704 29.2746C233.764 29.2746 231.964 29.9646 229.654 31.2546L231.064 33.9546C232.714 32.9646 234.334 32.4546 235.834 32.4546C238.234 32.4546 239.464 33.5646 239.464 35.4246V35.8446H234.784C230.884 35.8746 228.694 37.7046 228.694 40.6746C228.694 43.5246 230.854 45.6546 234.304 45.6546C236.584 45.6546 238.384 44.9346 239.494 43.5246V45.4746H243.334ZM235.234 42.6546C233.464 42.6546 232.384 41.7846 232.384 40.4346C232.384 39.0246 233.344 38.4546 235.414 38.4546H239.464V39.8946C239.254 41.4546 237.484 42.6546 235.234 42.6546ZM258.599 29.4246V37.3446C258.599 39.9246 257.099 41.9046 254.579 41.9346C252.419 41.9346 251.129 40.5846 251.129 38.3346V29.4246H247.199V39.4746C247.199 43.2546 249.419 45.6246 253.019 45.6246C255.569 45.6246 257.489 44.6346 258.599 42.5046V45.4746H262.529V29.4246H258.599Z" fill="#2A2338"/>
<g clip-path="url(#clip0_1031_3603)">
<path fill-rule="evenodd" clip-rule="evenodd" d="M15.9454 29.3844L6.92787 26.5684L5.70703 35.2176L17.5477 32.8178C17.9812 31.4513 17.2946 29.9427 15.9454 29.3844Z" fill="#EDF4FF"/>
<path fill-rule="evenodd" clip-rule="evenodd" d="M17.5462 32.8162C17.9797 31.4497 17.293 29.9412 15.9438 29.3828L12.0352 28.1621C13.3843 28.7204 14.071 31.4497 13.6375 32.8162H17.5462Z" fill="#DBEAFF"/>
<path fill-rule="evenodd" clip-rule="evenodd" d="M30.4749 32.8164H22.7928H9.73127H6.92891L4.72656 38.6669L6.92891 42.3811L30.4749 40.179L32.4952 36.1976L30.4749 32.8164Z" fill="#DFD3FA"/>
<path fill-rule="evenodd" clip-rule="evenodd" d="M30.4737 40.18H6.92768V32.8174V26.5682V21.1685C6.92768 19.7327 5.75542 18.5605 4.31949 18.5605C2.8871 18.5605 1.71484 19.7327 1.71484 21.1685V45.3923H6.03279H30.4737L32.494 42.7861L30.4737 40.18Z" fill="#F9F7F8"/>
<path fill-rule="evenodd" clip-rule="evenodd" d="M57.1192 40.1788V27.0039H35.1201C32.564 27.0039 30.4727 29.0952 30.4727 31.651V32.8163V40.1788V45.3912H57.1193V40.1788H57.1192Z" fill="#855DDB"/>
<path fill-rule="evenodd" clip-rule="evenodd" d="M62.331 45.3921V27.0048C62.331 25.5725 61.1553 24.4004 59.7228 24.4004C58.2904 24.4004 57.1181 25.5725 57.1181 27.0048L53.3672 40.1797L57.1181 45.3921H58.9528H62.331Z" fill="#F9F7F8"/>
<path fill-rule="evenodd" clip-rule="evenodd" d="M25.7227 32.8164H30.4742V40.179H25.7227V32.8164Z" fill="#CDBAF8"/>
<path fill-rule="evenodd" clip-rule="evenodd" d="M25.7227 40.1797H30.4742V45.392H25.7227V40.1797Z" fill="#F0F0F0"/>
<path fill-rule="evenodd" clip-rule="evenodd" d="M57.12 40.1788V32.8163V27.0039H52.8125V32.8163V40.1788V45.3912H57.12V40.1788Z" fill="#A076FB"/>
<path fill-rule="evenodd" clip-rule="evenodd" d="M6.92579 32.8174V26.5682V21.1685C6.92579 19.7327 5.75353 18.5605 4.3176 18.5605C3.86331 18.5605 3.43324 18.6785 3.05859 18.8865C3.85976 19.3338 4.40423 20.1904 4.40423 21.1684V26.568V32.8173V40.1799H5.61809H6.92567V34.9675V32.8174H6.92579Z" fill="#F0F0F0"/>
<path fill-rule="evenodd" clip-rule="evenodd" d="M34.9432 21.7471C40.312 18.8964 42.3514 12.2344 39.5004 6.86597C38.0161 4.06728 35.4876 2.17032 32.6506 1.40391C30.802 0.904463 28.8182 0.883663 26.9037 1.40391C26.1268 1.61545 25.3604 1.91375 24.6182 2.30907C19.2528 5.15976 17.21 11.8217 20.0609 17.1902C22.9119 22.5587 29.5743 24.5978 34.9432 21.7471Z" fill="#FAF5DC"/>
<path fill-rule="evenodd" clip-rule="evenodd" d="M35.8222 11.159C35.8222 10.5036 35.2846 9.96609 34.6291 9.96609H31.8441V7.18122C31.8441 6.52578 31.3065 5.98828 30.6511 5.98828H28.9134C28.258 5.98828 27.7238 6.52578 27.7238 7.18122V9.96596H24.9352C24.2798 9.96596 23.7422 10.5035 23.7422 11.1589V12.8963C23.7422 13.5518 24.2798 14.0892 24.9352 14.0892H27.7238V16.874C27.7238 17.5294 28.2579 18.0669 28.9134 18.0669H30.6511C31.3065 18.0669 31.8441 17.5294 31.8441 16.874V14.0892H34.6291C35.2846 14.0892 35.8222 13.5518 35.8222 12.8963V11.159Z" fill="#F29100"/>
<path fill-rule="evenodd" clip-rule="evenodd" d="M34.9458 21.7468C40.3147 18.8961 42.354 12.2341 39.5031 6.86564C38.0187 4.06694 35.4903 2.16999 32.6533 1.40357C31.2209 1.0151 29.7088 0.91453 28.207 1.13305C28.6509 1.19545 29.088 1.28563 29.518 1.40357C32.355 2.16999 34.88 4.06694 36.3678 6.86564C39.2188 12.2341 37.1794 18.8961 31.8106 21.7468C30.6557 22.3606 29.4452 22.7455 28.2244 22.9225C30.4544 23.245 32.8025 22.8843 34.9458 21.7468Z" fill="#F5EBCD"/>
<path fill-rule="evenodd" clip-rule="evenodd" d="M9.60265 58.258C9.60265 56.2881 8.00375 54.6895 6.03375 54.6895C4.06032 54.6895 2.46484 56.2882 2.46484 58.258C2.46484 60.2279 4.0602 61.8265 6.03375 61.8265C8.00387 61.8265 9.60265 60.2279 9.60265 58.258Z" fill="#423361"/>
<path fill-rule="evenodd" clip-rule="evenodd" d="M62.5244 58.2442C62.514 56.2778 60.9186 54.6895 58.9555 54.6895C56.9821 54.6895 55.3867 56.2882 55.3867 58.258C55.3867 60.2279 56.9821 61.8265 58.9555 61.8265C60.9185 61.8265 62.5139 60.2381 62.5244 58.2752V58.2579V58.2442Z" fill="#423361"/>
<path fill-rule="evenodd" clip-rule="evenodd" d="M62.5249 58.2442C62.5145 56.2778 60.9191 54.6895 58.956 54.6895C58.519 54.6895 58.0993 54.7692 57.7109 54.9114C59.0635 55.4143 60.0312 56.7148 60.0381 58.2442V58.258V58.2754C60.0311 59.8012 59.0635 61.1018 57.7109 61.6046C58.0994 61.7502 58.5191 61.8265 58.956 61.8265C60.919 61.8265 62.5144 60.2381 62.5249 58.2752V58.2579V58.2442Z" fill="#513E79"/>
<path fill-rule="evenodd" clip-rule="evenodd" d="M6.03412 61.8265C8.00412 61.8265 9.60303 60.2277 9.60303 58.258C9.60303 56.2881 8.00412 54.6895 6.03412 54.6895C5.59708 54.6895 5.17741 54.7692 4.78906 54.9114C6.14864 55.4177 7.11621 56.7252 7.11621 58.258C7.11621 59.7908 6.14852 61.1017 4.78906 61.6046C5.17741 61.7503 5.59708 61.8265 6.03412 61.8265Z" fill="#513E79"/>
<path fill-rule="evenodd" clip-rule="evenodd" d="M62.334 45.3921V27.0048C62.334 25.5725 61.1583 24.4004 59.7258 24.4004C59.2264 24.4004 58.7581 24.5426 58.3594 24.7889C59.105 25.2501 59.601 26.072 59.601 27.0049V45.3922H62.334V45.3921Z" fill="#F0F0F0"/>
<path d="M26.2889 23.4282C27.4424 23.7813 28.6215 23.9562 29.7946 23.9562C31.7186 23.9562 33.6259 23.4854 35.3735 22.5574C41.1796 19.4745 43.3946 12.2422 40.3108 6.43546C38.817 3.6227 36.3173 1.5602 33.2721 0.627874C30.227 -0.304698 27.0009 0.00473201 24.1875 1.49853L24.1874 1.49866C18.3821 4.58304 16.1673 11.8152 19.2502 17.6204C20.744 20.4333 23.2437 22.4957 26.2889 23.4282ZM25.0486 3.11934L25.0485 3.11946C27.4288 1.85556 30.1586 1.59421 32.7348 2.38278C35.3112 3.17146 37.4261 4.91645 38.6899 7.29634C41.299 12.2094 39.4251 18.3284 34.5127 20.9367C32.1324 22.2007 29.4029 22.4623 26.8264 21.6735C24.2501 20.8847 22.1352 19.1397 20.8713 16.7598C18.2628 11.8481 20.1368 5.729 25.0486 3.11934Z" fill="black"/>
<path d="M24.935 15.0067H26.8058V16.8738C26.8058 18.0376 27.7511 18.9844 28.9131 18.9844H30.6507C31.8146 18.9844 32.7615 18.0376 32.7615 16.8738V15.0067H34.6288C35.7927 15.0067 36.7396 14.0599 36.7396 12.8961V11.1586C36.7396 9.99476 35.7927 9.048 34.6288 9.048H32.7615V7.18089C32.7615 6.01708 31.8146 5.07031 30.6507 5.07031H28.9131C27.7511 5.07031 26.8058 6.01708 26.8058 7.18089V9.048H24.935C23.7712 9.048 22.8242 9.99476 22.8242 11.1586V12.8961C22.8242 14.0599 23.7712 15.0067 24.935 15.0067ZM24.6596 11.1586C24.6596 11.0093 24.7858 10.8832 24.935 10.8832H27.7236C28.2304 10.8832 28.6412 10.4724 28.6412 9.96552V7.18077C28.6412 7.0315 28.7658 6.90536 28.9131 6.90536H30.6507C30.8 6.90536 30.9262 7.0315 30.9262 7.18077V9.96552C30.9262 10.4723 31.337 10.8832 31.8438 10.8832H34.6288C34.7781 10.8832 34.9042 11.0093 34.9042 11.1586V12.8961C34.9042 13.0454 34.7781 13.1715 34.6288 13.1715H31.8438C31.337 13.1715 30.9262 13.5823 30.9262 14.0892V16.8739C30.9262 17.0232 30.8 17.1493 30.6507 17.1493H28.9131C28.7657 17.1493 28.6412 17.0232 28.6412 16.8739V14.0892C28.6412 13.5824 28.2304 13.1715 27.7236 13.1715H24.935C24.7858 13.1715 24.6596 13.0454 24.6596 12.8961V11.1586Z" fill="black"/>
<path d="M59.8725 53.8667V46.3094H62.3329C62.8398 46.3094 63.2507 45.8987 63.2507 45.3918V27.0046C63.2507 25.0627 61.6689 23.4826 59.7248 23.4826C58.1 23.4826 56.7294 24.5887 56.3245 26.087H48.0541C47.5472 26.087 47.1365 26.4977 47.1365 27.0046C47.1365 27.5115 47.5473 27.9223 48.0541 27.9223H56.2024V44.4744H31.3911V40.1797V31.652C31.3911 29.5954 33.0643 27.9224 35.1209 27.9224H43.8158C44.3227 27.9224 44.7334 27.5117 44.7334 27.0048C44.7334 26.4978 44.3226 26.0871 43.8158 26.0871H35.1209C32.0523 26.0871 29.5557 28.5833 29.5557 31.652V31.8995H18.5916C18.5565 30.4634 17.6831 29.1101 16.2958 28.536C16.2704 28.5255 16.2446 28.5162 16.2184 28.508L7.84512 25.8929V21.168C7.84512 19.2241 6.26334 17.6426 4.31928 17.6426C2.37694 17.6425 0.796875 19.224 0.796875 21.1679V29.7548C0.796875 30.2615 1.20774 30.6724 1.71452 30.6724C2.2213 30.6724 2.63216 30.2617 2.63216 29.7548V21.1679C2.63216 20.2358 3.38891 19.4776 4.31916 19.4776C5.25124 19.4776 6.00959 20.2358 6.00959 21.1679V40.1794C6.00959 40.6862 6.42044 41.0971 6.92723 41.0971H29.5555V44.4741H2.63229V33.9926C2.63229 33.4858 2.22143 33.0749 1.71464 33.0749C1.20786 33.0749 0.796997 33.4857 0.796997 33.9926V45.3918C0.796997 45.8986 1.20786 46.3094 1.71464 46.3094H5.11494V53.8667C3.07973 54.2913 1.54616 56.099 1.54616 58.2583C1.54616 60.7319 3.55886 62.7444 6.03271 62.7444C8.50656 62.7444 10.5193 60.7319 10.5193 58.2583C10.5193 56.099 8.98557 54.2915 6.95048 53.8667V50.9566H58.0371V53.8667C56.0019 54.2913 54.4682 56.099 54.4682 58.2583C54.4682 60.7319 56.4809 62.7444 58.9547 62.7444C61.4286 62.7444 63.4414 60.7317 63.4414 58.2581C63.4414 56.0989 61.9077 54.2913 59.8725 53.8667ZM59.7247 25.3178C60.6569 25.3178 61.4151 26.0744 61.4151 27.0046V44.4743H58.0378V27.0046C58.0378 26.0744 58.7946 25.3178 59.7247 25.3178ZM15.628 30.2461C16.3001 30.5399 16.7262 31.1975 16.757 31.8993H7.84512V27.8155L15.628 30.2461ZM7.84512 39.2619V33.7345H17.5472H29.5557V39.2619H7.84512ZM8.68372 58.2581C8.68372 59.7199 7.49446 60.909 6.03259 60.909C4.57072 60.909 3.38145 59.7199 3.38145 58.2581C3.38145 56.7963 4.57072 55.6071 6.03259 55.6071C7.49446 55.6071 8.68372 56.7964 8.68372 58.2581ZM6.95023 49.1215V46.3095H30.4734H58.0371V49.1215H6.95023ZM58.9549 60.9091C57.493 60.9091 56.3037 59.72 56.3037 58.2583C56.3037 56.7964 57.493 55.6072 58.9549 55.6072C60.4167 55.6072 61.606 56.7964 61.606 58.2583C61.606 59.7199 60.4167 60.9091 58.9549 60.9091Z" fill="black"/>
</g>
<defs>
<clipPath id="clip0_1031_3603">
<rect width="62.6445" height="62.6445" fill="white" transform="translate(0.796875 0.0996094)"/>
</clipPath>
</defs>
</svg>
